{
    "asset" : {
        "generator" : "Khronos glTF Blender I/O v3.3.32",
        "version" : "2.0"
    },
    "scene" : 0,
    "scenes" : [
        {
            "name" : "Scene",
            "nodes" : [
                9
            ]
        }
    ],
    "nodes" : [
        {
            "name" : "Bone.007",
            "rotation" : [
                -2.316788538792025e-09,
                0,
                0,
                1
            ],
            "translation" : [
                0,
                0.2297043800354004,
                -5.836682248627767e-10
            ]
        },
        {
            "children" : [
                0
            ],
            "name" : "Bone.006",
            "rotation" : [
                2.162359180601925e-09,
                0,
                0,
                1
            ],
            "translation" : [
                0,
                0.24611186981201172,
                -1.393971160723595e-09
            ]
        },
        {
            "children" : [
                1
            ],
            "name" : "Bone.005",
            "rotation" : [
                -3.542560023106489e-09,
                0,
                0,
                1
            ],
            "translation" : [
                0,
                0.2570500373840332,
                6.469917934737168e-10
            ]
        },
        {
            "children" : [
                2
            ],
            "name" : "Bone.004",
            "rotation" : [
                7.246256927828654e-09,
                0,
                0,
                1
            ],
            "translation" : [
                0,
                0.2570499777793884,
                7.058531537040835e-10
            ]
        },
        {
            "children" : [
                3
            ],
            "name" : "Bone.003",
            "rotation" : [
                -3.7036969047221646e-09,
                0,
                0,
                1
            ],
            "translation" : [
                0,
                0.24611186981201172,
                -1.3111360885886825e-09
            ]
        },
        {
            "children" : [
                4
            ],
            "name" : "Bone.002",
            "rotation" : [
                -3.5425671285338467e-09,
                0,
                0,
                1
            ],
            "translation" : [
                0,
                0.2570500671863556,
                -1.334562682586693e-09
            ]
        },
        {
            "children" : [
                5
            ],
            "name" : "Bone.001",
            "rotation" : [
                5.3766342489325325e-09,
                0,
                0,
                1
            ],
            "translation" : [
                0,
                0.26269829273223877,
                1.590823472952252e-09
            ]
        },
        {
            "children" : [
                6
            ],
            "name" : "Bone",
            "rotation" : [
                -0.7071068286895752,
                0,
                0,
                0.7071067094802856
            ],
            "translation" : [
                1.1920928955078125e-07,
                -0.03250475972890854,
                -0.00934842973947525
            ]
        },
        {
            "mesh" : 0,
            "name" : "\u7acb\u65b9\u4f53",
            "skin" : 0
        },
        {
            "children" : [
                8,
                7
            ],
            "name" : "\u30a2\u30fc\u30de\u30c1\u30e5\u30a2"
        }
    ],
    "animations" : [
        {
            "channels" : [
                {
                    "sampler" : 0,
                    "target" : {
                        "node" : 7,
                        "path" : "translation"
                    }
                },
                {
                    "sampler" : 1,
                    "target" : {
                        "node" : 7,
                        "path" : "rotation"
                    }
                },
                {
                    "sampler" : 2,
                    "target" : {
                        "node" : 7,
                        "path" : "scale"
                    }
                },
                {
                    "sampler" : 3,
                    "target" : {
                        "node" : 6,
                        "path" : "translation"
                    }
                },
                {
                    "sampler" : 4,
                    "target" : {
                        "node" : 6,
                        "path" : "rotation"
                    }
                },
                {
                    "sampler" : 5,
                    "target" : {
                        "node" : 6,
                        "path" : "scale"
                    }
                },
                {
                    "sampler" : 6,
                    "target" : {
                        "node" : 5,
                        "path" : "translation"
                    }
                },
                {
                    "sampler" : 7,
                    "target" : {
                        "node" : 5,
                        "path" : "rotation"
                    }
                },
                {
                    "sampler" : 8,
                    "target" : {
                        "node" : 5,
                        "path" : "scale"
                    }
                },
                {
                    "sampler" : 9,
                    "target" : {
                        "node" : 4,
                        "path" : "translation"
                    }
                },
                {
                    "sampler" : 10,
                    "target" : {
                        "node" : 4,
                        "path" : "rotation"
                    }
                },
                {
                    "sampler" : 11,
                    "target" : {
                        "node" : 4,
                        "path" : "scale"
                    }
                },
                {
                    "sampler" : 12,
                    "target" : {
                        "node" : 3,
                        "path" : "translation"
                    }
                },
                {
                    "sampler" : 13,
                    "target" : {
                        "node" : 3,
                        "path" : "rotation"
                    }
                },
                {
                    "sampler" : 14,
                    "target" : {
                        "node" : 3,
                        "path" : "scale"
                    }
                },
                {
                    "sampler" : 15,
                    "target" : {
                        "node" : 2,
                        "path" : "translation"
                    }
                },
                {
                    "sampler" : 16,
                    "target" : {
                        "node" : 2,
                        "path" : "rotation"
                    }
                },
                {
                    "sampler" : 17,
                    "target" : {
                        "node" : 2,
                        "path" : "scale"
                    }
                },
                {
                    "sampler" : 18,
                    "target" : {
                        "node" : 1,
                        "path" : "translation"
                    }
                },
                {
                    "sampler" : 19,
                    "target" : {
                        "node" : 1,
                        "path" : "rotation"
                    }
                },
                {
                    "sampler" : 20,
                    "target" : {
                        "node" : 1,
                        "path" : "scale"
                    }
                },
                {
                    "sampler" : 21,
                    "target" : {
                        "node" : 0,
                        "path" : "translation"
                    }
                },
                {
                    "sampler" : 22,
                    "target" : {
                        "node" : 0,
                        "path" : "rotation"
                    }
                },
                {
                    "sampler" : 23,
                    "target" : {
                        "node" : 0,
                        "path" : "scale"
                    }
                }
            ],
            "name" : "\u30a2\u30fc\u30de\u30c1\u30e5\u30a2Action.003",
            "samplers" : [
                {
                    "input" : 7,
                    "interpolation" : "LINEAR",
                    "output" : 8
                },
                {
                    "input" : 7,
                    "interpolation" : "LINEAR",
                    "output" : 9
                },
                {
                    "input" : 7,
                    "interpolation" : "LINEAR",
                    "output" : 10
                },
                {
                    "input" : 7,
                    "interpolation" : "LINEAR",
                    "output" : 11
                },
                {
                    "input" : 7,
                    "interpolation" : "LINEAR",
                    "output" : 12
                },
                {
                    "input" : 7,
                    "interpolation" : "LINEAR",
                    "output" : 13
                },
                {
                    "input" : 7,
                    "interpolation" : "LINEAR",
                    "output" : 14
                },
                {
                    "input" : 7,
                    "interpolation" : "LINEAR",
                    "output" : 15
                },
                {
                    "input" : 7,
                    "interpolation" : "LINEAR",
                    "output" : 16
                },
                {
                    "input" : 7,
                    "interpolation" : "LINEAR",
                    "output" : 17
                },
                {
                    "input" : 7,
                    "interpolation" : "LINEAR",
                    "output" : 18
                },
                {
                    "input" : 7,
                    "interpolation" : "LINEAR",
                    "output" : 19
                },
                {
                    "input" : 7,
                    "interpolation" : "LINEAR",
                    "output" : 20
                },
                {
                    "input" : 7,
                    "interpolation" : "LINEAR",
                    "output" : 21
                },
                {
                    "input" : 7,
                    "interpolation" : "LINEAR",
                    "output" : 22
                },
                {
                    "input" : 7,
                    "interpolation" : "LINEAR",
                    "output" : 23
                },
                {
                    "input" : 7,
                    "interpolation" : "LINEAR",
                    "output" : 24
                },
                {
                    "input" : 7,
                    "interpolation" : "LINEAR",
                    "output" : 25
                },
                {
                    "input" : 7,
                    "interpolation" : "LINEAR",
                    "output" : 26
                },
                {
                    "input" : 7,
                    "interpolation" : "LINEAR",
                    "output" : 27
                },
                {
                    "input" : 7,
                    "interpolation" : "LINEAR",
                    "output" : 28
                },
                {
                    "input" : 7,
                    "interpolation" : "LINEAR",
                    "output" : 29
                },
                {
                    "input" : 7,
                    "interpolation" : "LINEAR",
                    "output" : 30
                },
                {
                    "input" : 7,
                    "interpolation" : "LINEAR",
                    "output" : 31
                }
            ]
        }
    ],
    "meshes" : [
        {
            "name" : "\u7acb\u65b9\u4f53.001",
            "primitives" : [
                {
                    "attributes" : {
                        "POSITION" : 0,
                        "NORMAL" : 1,
                        "TEXCOORD_0" : 2,
                        "JOINTS_0" : 3,
                        "WEIGHTS_0" : 4
                    },
                    "indices" : 5
                }
            ]
        }
    ],
    "skins" : [
        {
            "inverseBindMatrices" : 6,
            "joints" : [
                7,
                6,
                5,
                4,
                3,
                2,
                1,
                0
            ],
            "name" : "\u30a2\u30fc\u30de\u30c1\u30e5\u30a2"
        }
    ],
    "accessors" : [
        {
            "bufferView" : 0,
            "componentType" : 5126,
            "count" : 167,
            "max" : [
                0.06017810106277466,
                0.9728527069091797,
                -0.03488349914550781
            ],
            "min" : [
                -0.06017810106277466,
                -1.0271472930908203,
                -2.034883499145508
            ],
            "type" : "VEC3"
        },
        {
            "bufferView" : 1,
            "componentType" : 5126,
            "count" : 167,
            "type" : "VEC3"
        },
        {
            "bufferView" : 2,
            "componentType" : 5126,
            "count" : 167,
            "type" : "VEC2"
        },
        {
            "bufferView" : 3,
            "componentType" : 5121,
            "count" : 167,
            "type" : "VEC4"
        },
        {
            "bufferView" : 4,
            "componentType" : 5126,
            "count" : 167,
            "type" : "VEC4"
        },
        {
            "bufferView" : 5,
            "componentType" : 5123,
            "count" : 204,
            "type" : "SCALAR"
        },
        {
            "bufferView" : 6,
            "componentType" : 5126,
            "count" : 8,
            "type" : "MAT4"
        },
        {
            "bufferView" : 7,
            "componentType" : 5126,
            "count" : 60,
            "max" : [
                2.5
            ],
            "min" : [
                0.041666666666666664
            ],
            "type" : "SCALAR"
        },
        {
            "bufferView" : 8,
            "componentType" : 5126,
            "count" : 60,
            "type" : "VEC3"
        },
        {
            "bufferView" : 9,
            "componentType" : 5126,
            "count" : 60,
            "type" : "VEC4"
        },
        {
            "bufferView" : 10,
            "componentType" : 5126,
            "count" : 60,
            "type" : "VEC3"
        },
        {
            "bufferView" : 11,
            "componentType" : 5126,
            "count" : 60,
            "type" : "VEC3"
        },
        {
            "bufferView" : 12,
            "componentType" : 5126,
            "count" : 60,
            "type" : "VEC4"
        },
        {
            "bufferView" : 13,
            "componentType" : 5126,
            "count" : 60,
            "type" : "VEC3"
        },
        {
            "bufferView" : 14,
            "componentType" : 5126,
            "count" : 60,
            "type" : "VEC3"
        },
        {
            "bufferView" : 15,
            "componentType" : 5126,
            "count" : 60,
            "type" : "VEC4"
        },
        {
            "bufferView" : 16,
            "componentType" : 5126,
            "count" : 60,
            "type" : "VEC3"
        },
        {
            "bufferView" : 17,
            "componentType" : 5126,
            "count" : 60,
            "type" : "VEC3"
        },
        {
            "bufferView" : 18,
            "componentType" : 5126,
            "count" : 60,
            "type" : "VEC4"
        },
        {
            "bufferView" : 19,
            "componentType" : 5126,
            "count" : 60,
            "type" : "VEC3"
        },
        {
            "bufferView" : 20,
            "componentType" : 5126,
            "count" : 60,
            "type" : "VEC3"
        },
        {
            "bufferView" : 21,
            "componentType" : 5126,
            "count" : 60,
            "type" : "VEC4"
        },
        {
            "bufferView" : 22,
            "componentType" : 5126,
            "count" : 60,
            "type" : "VEC3"
        },
        {
            "bufferView" : 23,
            "componentType" : 5126,
            "count" : 60,
            "type" : "VEC3"
        },
        {
            "bufferView" : 24,
            "componentType" : 5126,
            "count" : 60,
            "type" : "VEC4"
        },
        {
            "bufferView" : 25,
            "componentType" : 5126,
            "count" : 60,
            "type" : "VEC3"
        },
        {
            "bufferView" : 26,
            "componentType" : 5126,
            "count" : 60,
            "type" : "VEC3"
        },
        {
            "bufferView" : 27,
            "componentType" : 5126,
            "count" : 60,
            "type" : "VEC4"
        },
        {
            "bufferView" : 28,
            "componentType" : 5126,
            "count" : 60,
            "type" : "VEC3"
        },
        {
            "bufferView" : 29,
            "componentType" : 5126,
            "count" : 60,
            "type" : "VEC3"
        },
        {
            "bufferView" : 30,
            "componentType" : 5126,
            "count" : 60,
            "type" : "VEC4"
        },
        {
            "bufferView" : 31,
            "componentType" : 5126,
            "count" : 60,
            "type" : "VEC3"
        }
    ],
    "bufferViews" : [
        {
            "buffer" : 0,
            "byteLength" : 2004,
            "byteOffset" : 0,
            "target" : 34962
        },
        {
            "buffer" : 0,
            "byteLength" : 2004,
            "byteOffset" : 2004,
            "target" : 34962
        },
        {
            "buffer" : 0,
            "byteLength" : 1336,
            "byteOffset" : 4008,
            "target" : 34962
        },
        {
            "buffer" : 0,
            "byteLength" : 668,
            "byteOffset" : 5344,
            "target" : 34962
        },
        {
            "buffer" : 0,
            "byteLength" : 2672,
            "byteOffset" : 6012,
            "target" : 34962
        },
        {
            "buffer" : 0,
            "byteLength" : 408,
            "byteOffset" : 8684,
            "target" : 34963
        },
        {
            "buffer" : 0,
            "byteLength" : 512,
            "byteOffset" : 9092
        },
        {
            "buffer" : 0,
            "byteLength" : 240,
            "byteOffset" : 9604
        },
        {
            "buffer" : 0,
            "byteLength" : 720,
            "byteOffset" : 9844
        },
        {
            "buffer" : 0,
            "byteLength" : 960,
            "byteOffset" : 10564
        },
        {
            "buffer" : 0,
            "byteLength" : 720,
            "byteOffset" : 11524
        },
        {
            "buffer" : 0,
            "byteLength" : 720,
            "byteOffset" : 12244
        },
        {
            "buffer" : 0,
            "byteLength" : 960,
            "byteOffset" : 12964
        },
        {
            "buffer" : 0,
            "byteLength" : 720,
            "byteOffset" : 13924
        },
        {
            "buffer" : 0,
            "byteLength" : 720,
            "byteOffset" : 14644
        },
        {
            "buffer" : 0,
            "byteLength" : 960,
            "byteOffset" : 15364
        },
        {
            "buffer" : 0,
            "byteLength" : 720,
            "byteOffset" : 16324
        },
        {
            "buffer" : 0,
            "byteLength" : 720,
            "byteOffset" : 17044
        },
        {
            "buffer" : 0,
            "byteLength" : 960,
            "byteOffset" : 17764
        },
        {
            "buffer" : 0,
            "byteLength" : 720,
            "byteOffset" : 18724
        },
        {
            "buffer" : 0,
            "byteLength" : 720,
            "byteOffset" : 19444
        },
        {
            "buffer" : 0,
            "byteLength" : 960,
            "byteOffset" : 20164
        },
        {
            "buffer" : 0,
            "byteLength" : 720,
            "byteOffset" : 21124
        },
        {
            "buffer" : 0,
            "byteLength" : 720,
            "byteOffset" : 21844
        },
        {
            "buffer" : 0,
            "byteLength" : 960,
            "byteOffset" : 22564
        },
        {
            "buffer" : 0,
            "byteLength" : 720,
            "byteOffset" : 23524
        },
        {
            "buffer" : 0,
            "byteLength" : 720,
            "byteOffset" : 24244
        },
        {
            "buffer" : 0,
            "byteLength" : 960,
            "byteOffset" : 24964
        },
        {
            "buffer" : 0,
            "byteLength" : 720,
            "byteOffset" : 25924
        },
        {
            "buffer" : 0,
            "byteLength" : 720,
            "byteOffset" : 26644
        },
        {
            "buffer" : 0,
            "byteLength" : 960,
            "byteOffset" : 27364
        },
        {
            "buffer" : 0,
            "byteLength" : 720,
            "byteOffset" : 28324
        }
    ],
    "buffers" : [
        {
            "byteLength" : 29044,
            "uri" : "data:application/octet-stream;base64,"
        }
    ]
}
