# Blender 4.0.2
# www.blender.org
mtllib pLA.mtl
o 立方体.001
v 0.584972 -0.963069 -0.194177
v 0.584972 0.036931 -0.194177
v 0.217793 -0.861748 -0.194177
v 0.217793 0.036931 -0.194177
v 0.584972 -0.963069 0.194177
v 0.584972 0.036931 0.194177
v 0.217793 -0.963069 0.194177
v 0.217793 0.036931 0.194177
v 0.211794 -0.861748 -0.000000
v 0.211794 0.218014 -0.000000
v 0.634208 -0.963069 -0.000000
v 0.634208 0.036931 -0.000000
v 0.213996 -0.861748 -0.113216
v 0.613420 0.036931 -0.113216
v 0.213996 0.218014 -0.113216
v 0.613420 -0.963069 -0.113216
v 0.213996 0.218014 0.113216
v 0.613420 -0.963069 0.113216
v 0.213996 -0.861748 0.113216
v 0.613420 0.036931 0.113216
v 0.413708 -0.963069 -0.250000
v 0.413708 0.036931 -0.250000
v 0.413708 -0.963069 0.250000
v 0.413708 0.036931 0.250000
v 0.413708 0.194094 -0.000000
v 0.413708 -0.963069 -0.000000
v 0.413708 -0.963069 -0.125000
v 0.413708 0.194094 -0.125000
v 0.413708 0.194094 0.125000
v 0.413708 -0.963069 0.125000
v 0.513564 -0.963069 -0.226431
v 0.513564 0.036931 0.226431
v 0.523958 0.146338 -0.000000
v 0.213996 -1.336484 0.113216
v 0.217793 -1.336484 0.194177
v 0.523958 0.146338 -0.125000
v 0.523958 0.146338 0.125000
v 0.313852 -1.336484 0.226431
v 0.513564 0.036931 -0.226431
v 0.513564 -0.963069 0.226431
v 0.313852 0.036931 -0.226431
v 0.313852 -0.963069 0.226431
v 0.313852 -0.963069 -0.226431
v 0.313852 0.036931 0.226431
v 0.303458 0.215231 -0.000000
v 0.303458 -0.963069 -0.000000
v 0.303458 -0.963069 -0.125000
v 0.303458 0.215231 -0.125000
v 0.303458 0.215231 0.125000
v 0.303458 -0.963069 0.125000
v 0.513564 -1.412707 -0.226431
v 0.584972 -1.229746 -0.194177
v 0.613420 -1.229746 0.113216
v 0.584972 -1.229746 0.194177
v 0.613420 -1.229746 -0.113216
v 0.634208 -1.229746 -0.000000
v 0.523958 -1.479069 -0.000000
v 0.523958 -1.479069 -0.125000
v 0.523958 -1.479069 0.125000
v 0.513564 -1.412707 0.226431
v 0.413708 -1.412707 0.250000
v 0.413708 -1.479069 0.125000
v 0.413708 -1.479069 -0.000000
v 0.413708 -1.479069 -0.125000
v 0.413708 -1.412707 -0.250000
v 0.303458 -1.336484 0.125000
vn -0.3183 -0.0000 -0.9480
vn -0.9989 -0.0000 0.0469
vn 0.4116 -0.0000 0.9113
vn 0.9435 -0.0000 -0.3315
vn -1.0000 -0.0000 -0.0000
vn 0.3205 0.6274 -0.7096
vn 0.7741 0.6330 -0.0000
vn 0.2297 -0.0000 0.9733
vn 0.9836 -0.0000 0.1806
vn -0.9998 -0.0000 -0.0194
vn -0.9989 -0.0000 -0.0469
vn 0.9836 -0.0000 -0.1806
vn 0.9435 -0.0000 0.3315
vn 0.3205 0.6274 0.7096
vn -0.9998 -0.0000 0.0194
vn -0.0000 -1.0000 -0.0000
vn 0.0952 0.4964 0.8629
vn 0.1883 0.9821 -0.0000
vn 0.0952 0.4964 -0.8629
vn -0.2297 -0.0000 0.9733
vn 0.2297 -0.0000 -0.9733
vn 0.4116 -0.0000 -0.9113
vn 0.2603 0.6010 0.7557
vn 0.3975 0.9176 -0.0000
vn 0.2603 0.6010 -0.7557
vn -0.3183 -0.0000 0.9480
vn -0.1071 0.4039 -0.9085
vn 0.0303 0.9995 -0.0006
vn -0.7415 -0.6708 -0.0144
vn -0.7512 -0.6592 -0.0352
vn 0.0303 0.9995 0.0006
vn -0.1071 0.4039 0.9085
vn -0.7415 -0.6708 0.0144
vn -0.2297 -0.0000 -0.9733
vn 0.9035 -0.3102 0.2956
vn 0.9412 -0.3377 -0.0000
vn 0.9035 -0.3102 -0.2956
vn 0.1100 -0.8779 -0.4661
vn 0.1100 -0.8779 0.4661
vn 0.1306 -0.0000 -0.9914
vn 0.9948 -0.0000 -0.1019
vn 0.7599 0.5926 -0.2670
vn 0.6986 0.7040 0.1283
vn 0.6986 0.7040 -0.1283
vn 0.7599 0.5926 0.2670
vn -0.1817 0.6121 0.7696
vn -0.1817 0.6121 -0.7696
vn 0.1724 0.6608 0.7305
vn 0.1724 0.6608 -0.7305
vn -0.2823 0.4619 -0.8408
vn 0.0311 0.9995 -0.0000
vn -0.7496 -0.6619 -0.0000
vn -0.7355 -0.6733 -0.0754
vn -0.2823 0.4619 0.8408
vn 0.9012 -0.2959 0.3167
vn 0.9019 -0.3988 -0.1656
vn 0.9012 -0.2959 -0.3167
vn 0.9019 -0.3988 0.1656
vn -0.0000 -0.8368 -0.5475
vn -0.0000 -0.8368 0.5475
vt 0.903555 0.085738
vt 0.901958 0.081841
vt 0.901958 0.086178
vt 0.914418 0.085738
vt 0.915682 0.081841
vt 0.914418 0.081056
vt 0.912808 0.073984
vt 0.905002 0.074687
vt 0.912808 0.074687
vt 0.924125 0.078200
vt 0.916319 0.078906
vt 0.924125 0.078906
vt 0.945370 0.095411
vt 0.943419 0.097361
vt 0.945370 0.097361
vt 0.939551 0.079244
vt 0.938496 0.078555
vt 0.937967 0.079221
vt 0.943305 0.078344
vt 0.941502 0.079266
vt 0.943453 0.079289
vt 0.916319 0.075659
vt 0.912808 0.075659
vt 0.924125 0.079890
vt 0.916319 0.080869
vt 0.924125 0.080869
vt 0.912650 0.085738
vt 0.910882 0.081056
vt 0.910882 0.085738
vt 0.909618 0.081841
vt 0.909618 0.085738
vt 0.926207 0.079890
vt 0.939770 0.078302
vt 0.916319 0.079890
vt 0.916319 0.081568
vt 0.924125 0.081568
vt 0.944559 0.078626
vt 0.945037 0.079304
vt 0.914890 0.073984
vt 0.912650 0.081056
vt 0.900797 0.099883
vt 0.902698 0.100968
vt 0.902698 0.099883
vt 0.944965 0.081184
vt 0.943412 0.080371
vt 0.943372 0.081429
vt 0.941461 0.080348
vt 0.939469 0.081383
vt 0.941421 0.081406
vt 0.902519 0.097919
vt 0.900797 0.098799
vt 0.902698 0.098799
vt 0.939510 0.080326
vt 0.937896 0.081101
vt 0.900797 0.100967
vt 0.902519 0.101847
vt 0.905002 0.076608
vt 0.912808 0.076608
vt 0.900281 0.086178
vt 0.898517 0.081841
vt 0.898517 0.086178
vt 0.897228 0.081841
vt 0.897228 0.086178
vt 0.897228 0.087334
vt 0.945369 0.080248
vt 0.926207 0.081568
vt 0.926207 0.078906
vt 0.937564 0.080157
vt 0.943419 0.095123
vt 0.941467 0.097361
vt 0.905002 0.075659
vt 0.905002 0.077516
vt 0.912808 0.077516
vt 0.914418 0.087797
vt 0.915682 0.086178
vt 0.901953 0.081068
vt 0.903555 0.081841
vt 0.903473 0.081056
vt 0.943156 0.082271
vt 0.941388 0.082271
vt 0.904328 0.098900
vt 0.904366 0.099882
vt 0.904263 0.098198
vt 0.939621 0.082230
vt 0.903610 0.076658
vt 0.903588 0.077513
vt 0.904328 0.100864
vt 0.900281 0.081841
vt 0.926207 0.080869
vt 0.927636 0.081839
vt 0.928154 0.080960
vt 0.928154 0.079876
vt 0.928154 0.078792
vt 0.927636 0.077911
vt 0.910415 0.099883
vt 0.912316 0.100968
vt 0.912316 0.099884
vt 0.910651 0.097919
vt 0.912316 0.098800
vt 0.912373 0.097715
vt 0.910415 0.098799
vt 0.910651 0.101847
vt 0.912373 0.102051
vt 0.898517 0.088128
vt 0.941467 0.095123
vt 0.939515 0.097361
vt 0.937564 0.095411
vt 0.937564 0.097361
vt 0.940015 0.098577
vt 0.941263 0.097834
vt 0.940015 0.097715
vt 0.931770 0.098154
vt 0.933333 0.099773
vt 0.933333 0.097715
vt 0.915724 0.077516
vt 0.936668 0.099334
vt 0.938254 0.097715
vt 0.936668 0.097715
vt 0.905002 0.073984
vt 0.916319 0.078200
vt 0.941545 0.078127
vt 0.916319 0.074687
vt 0.900797 0.097715
vt 0.900797 0.102051
vt 0.926207 0.078200
vt 0.915682 0.087797
vt 0.910415 0.100968
vt 0.900281 0.088128
vt 0.939515 0.095123
vt 0.941567 0.098780
vt 0.931770 0.099773
vt 0.915724 0.076608
vt 0.938254 0.099334
s 0
usemtl マテリアル.001
f 3/1/1 41/2/1 43/3/1
f 19/4/2 8/5/2 17/6/2
f 5/7/3 32/8/3 40/9/3
f 1/10/4 14/11/4 16/12/4
f 65/13/5 27/14/5 21/15/5
f 36/16/6 2/17/6 39/18/6
f 20/19/7 33/20/7 37/21/7
f 61/22/8 40/9/8 23/23/8
f 11/24/9 20/25/9 18/26/9
f 9/27/10 15/28/10 13/29/10
f 13/29/11 4/30/11 3/31/11
f 56/32/12 16/12/12 11/24/12
f 33/20/7 14/33/7 36/16/7
f 16/12/12 12/34/12 11/24/12
f 18/26/13 6/35/13 5/36/13
f 6/37/14 37/21/14 32/38/14
f 40/9/3 54/39/3 5/7/3
f 19/4/15 10/40/15 9/27/15
f 26/41/16 50/42/16 46/43/16
f 44/44/17 29/45/17 49/46/17
f 25/47/18 48/48/18 45/49/18
f 43/50/16 27/51/16 47/52/16
f 27/51/16 46/43/16 47/52/16
f 29/45/18 45/49/18 49/46/18
f 28/53/19 41/54/19 48/48/19
f 30/55/16 42/56/16 50/42/16
f 23/23/20 44/57/20 42/58/20
f 21/59/21 39/60/21 31/61/21
f 31/61/22 2/62/22 1/63/22
f 52/64/22 31/61/22 1/63/22
f 24/65/23 37/21/23 29/45/23
f 33/20/24 28/53/24 25/47/24
f 54/66/13 18/26/13 5/36/13
f 55/67/4 1/10/4 16/12/4
f 37/21/24 25/47/24 29/45/24
f 36/16/25 22/68/25 28/53/25
f 64/69/5 26/70/5 27/14/5
f 40/9/8 24/71/8 23/23/8
f 42/58/26 8/72/26 7/73/26
f 34/74/2 7/75/2 19/4/2
f 48/76/27 4/77/27 15/78/27
f 17/79/28 45/49/28 10/80/28
f 13/81/29 46/43/29 9/82/29
f 3/83/30 47/52/30 13/81/30
f 45/49/31 15/84/31 10/80/31
f 8/72/32 49/85/32 17/86/32
f 46/43/33 19/87/33 9/82/33
f 43/3/34 22/88/34 21/59/34
f 53/89/35 60/90/35 59/91/35
f 55/67/36 57/92/36 58/93/36
f 51/94/37 55/67/37 58/93/37
f 57/92/36 53/89/36 59/91/36
f 57/95/16 62/96/16 63/97/16
f 51/98/38 64/99/38 65/100/38
f 58/101/16 63/97/16 64/99/16
f 62/96/39 60/102/39 61/103/39
f 51/104/21 21/59/21 31/61/21
f 53/89/9 11/24/9 18/26/9
f 63/105/5 30/106/5 26/70/5
f 30/106/5 61/107/5 23/108/5
f 66/109/16 35/110/16 34/111/16
f 50/112/40 34/113/40 19/114/40
f 35/115/26 42/58/26 7/73/26
f 38/116/41 50/117/41 42/118/41
f 3/1/1 4/77/1 41/2/1
f 19/4/2 7/75/2 8/5/2
f 5/7/3 6/119/3 32/8/3
f 1/10/4 2/120/4 14/11/4
f 65/13/5 64/69/5 27/14/5
f 36/16/42 14/33/42 2/17/42
f 20/19/43 12/121/43 33/20/43
f 61/22/8 60/122/8 40/9/8
f 11/24/9 12/34/9 20/25/9
f 9/27/10 10/40/10 15/28/10
f 13/29/11 15/28/11 4/30/11
f 56/32/12 55/67/12 16/12/12
f 33/20/44 12/121/44 14/33/44
f 16/12/12 14/11/12 12/34/12
f 18/26/13 20/25/13 6/35/13
f 6/37/45 20/19/45 37/21/45
f 40/9/3 60/122/3 54/39/3
f 19/4/15 17/6/15 10/40/15
f 26/41/16 30/55/16 50/42/16
f 44/44/46 24/65/46 29/45/46
f 25/47/18 28/53/18 48/48/18
f 43/50/16 21/123/16 27/51/16
f 27/51/16 26/41/16 46/43/16
f 29/45/18 25/47/18 45/49/18
f 28/53/47 22/68/47 41/54/47
f 30/55/16 23/124/16 42/56/16
f 23/23/20 24/71/20 44/57/20
f 21/59/21 22/88/21 39/60/21
f 31/61/22 39/60/22 2/62/22
f 52/64/22 51/104/22 31/61/22
f 24/65/48 32/38/48 37/21/48
f 33/20/24 36/16/24 28/53/24
f 54/66/13 53/89/13 18/26/13
f 55/67/4 52/125/4 1/10/4
f 37/21/24 33/20/24 25/47/24
f 36/16/49 39/18/49 22/68/49
f 64/69/5 63/105/5 26/70/5
f 40/9/8 32/8/8 24/71/8
f 42/58/26 44/57/26 8/72/26
f 34/74/2 35/126/2 7/75/2
f 48/76/50 41/2/50 4/77/50
f 17/79/51 49/46/51 45/49/51
f 13/81/52 47/52/52 46/43/52
f 3/83/53 43/50/53 47/52/53
f 45/49/51 48/48/51 15/84/51
f 8/72/54 44/57/54 49/85/54
f 46/43/52 50/42/52 19/87/52
f 43/3/34 41/2/34 22/88/34
f 53/89/55 54/66/55 60/90/55
f 55/67/56 56/32/56 57/92/56
f 51/94/57 52/125/57 55/67/57
f 57/92/58 56/32/58 53/89/58
f 57/95/16 59/127/16 62/96/16
f 51/98/59 58/101/59 64/99/59
f 58/101/16 57/95/16 63/97/16
f 62/96/60 59/127/60 60/102/60
f 51/104/21 65/128/21 21/59/21
f 53/89/9 56/32/9 11/24/9
f 63/105/5 62/129/5 30/106/5
f 30/106/5 62/129/5 61/107/5
f 66/109/16 38/130/16 35/110/16
f 50/112/40 66/131/40 34/113/40
f 35/115/26 38/132/26 42/58/26
f 38/116/41 66/133/41 50/117/41
