# Blender v3.5.0 OBJ File: ''
# www.blender.org
mtllib Eweapon.mtl
o Cube
v 0.000000 2.700136 0.000000
v 0.000000 -2.700136 0.000000
v -0.153757 0.000000 0.157234
v 0.153757 0.000000 -0.157234
v -0.153757 0.000000 -0.157234
v 0.153757 0.000000 0.157234
v 0.275794 0.950584 -0.275794
v -0.275794 0.950584 0.275794
v -0.275794 0.950584 -0.275794
v 0.275794 0.950584 0.275794
v -0.275794 -0.892459 0.275794
v -0.275794 -0.892459 -0.275794
v 0.275794 -0.892459 0.275794
v 0.275794 -0.657053 -0.275794
v -0.275794 -1.303537 0.275794
v -0.275794 -1.303537 -0.275794
v 0.275794 -1.303537 0.275794
v 0.275794 -0.961084 -0.275794
v 0.275794 1.317501 -0.275794
v -0.275794 1.317501 0.275794
v -0.275794 1.317501 -0.275794
v 0.275794 1.317501 0.275794
vt 0.250000 0.232329
vt 0.375000 0.000000
vt 0.500000 0.232329
vt 0.500000 0.201453
vt 0.625000 0.000000
vt 0.750000 0.201453
vt 0.750000 0.252875
vt 0.875000 0.000000
vt 1.000000 0.252875
vt 0.000000 0.232329
vt 0.125000 0.000000
vt 0.250000 0.232329
vt 0.055311 0.453571
vt 0.250000 0.602726
vt 0.000000 0.602726
vt 0.750000 0.614958
vt 0.946264 0.457745
vt 1.000000 0.614958
vt 0.500000 0.564105
vt 0.696264 0.429574
vt 0.750000 0.564105
vt 0.305311 0.453571
vt 0.500000 0.602726
vt 0.250000 0.602726
vt 0.000000 0.293826
vt 0.194689 0.453571
vt 0.750000 0.312991
vt 0.803736 0.457745
vt 0.500000 0.261664
vt 0.553736 0.429574
vt 0.250000 0.293826
vt 0.444689 0.453571
vt 0.500000 0.671624
vt 0.250000 0.671624
vt 0.500000 0.631562
vt 0.750000 0.631562
vt 1.000000 0.682309
vt 0.750000 0.682309
vt 0.250000 0.671624
vt 0.000000 0.671624
vt 0.125000 0.906464
vt 0.875000 0.886118
vt 0.625000 0.887510
vt 0.375000 0.906464
vt 0.250000 0.293826
vt 1.000000 0.312991
vt 0.750000 0.261664
vt 0.500000 0.293826
vn 0.0000 0.1956 -0.9807
vn 0.9807 0.1956 0.0000
vn -0.9807 0.1956 0.0000
vn 0.0000 0.1956 0.9807
vn 0.0000 0.1317 0.9913
vn -0.9908 0.1355 0.0000
vn 0.9878 0.1432 0.0611
vn -0.0595 0.1394 -0.9884
vn 0.0000 -0.1238 0.9923
vn -0.9919 -0.1273 0.0000
vn 0.9919 -0.1273 0.0000
vn 0.0000 -0.1238 -0.9923
vn 0.0000 0.0000 -1.0000
vn 1.0000 0.0000 0.0000
vn -1.0000 0.0000 0.0000
vn 0.0000 0.0000 1.0000
vn 0.0000 -0.1937 0.9811
vn -0.9811 -0.1937 0.0000
vn 0.9792 -0.1723 -0.1069
vn 0.1069 -0.1723 -0.9792
vn 0.9832 0.1826 0.0000
vn 0.0000 0.1776 -0.9841
usemtl Material
s off
f 21/1/1 1/2/1 19/3/1
f 19/4/2 1/5/2 22/6/2
f 20/7/3 1/8/3 21/9/3
f 22/10/4 1/11/4 20/12/4
f 6/13/5 11/14/5 13/15/5
f 11/16/6 5/17/6 12/18/6
f 14/19/7 6/20/7 13/21/7
f 5/22/8 14/23/8 12/24/8
f 10/25/9 3/26/9 6/13/9
f 8/27/10 5/17/10 3/28/10
f 7/29/11 6/20/11 4/30/11
f 9/31/12 4/32/12 5/22/12
f 12/24/13 18/33/13 16/34/13
f 18/35/14 13/21/14 17/36/14
f 11/16/15 16/37/15 15/38/15
f 13/15/16 15/39/16 17/40/16
f 2/41/17 17/40/17 15/39/17
f 2/42/18 15/38/18 16/37/18
f 2/43/19 18/35/19 17/36/19
f 2/44/20 16/34/20 18/33/20
f 22/10/16 8/45/16 10/25/16
f 20/7/15 9/46/15 8/27/15
f 19/4/14 10/47/14 7/29/14
f 21/1/13 7/48/13 9/31/13
f 6/13/5 3/26/5 11/14/5
f 11/16/6 3/28/6 5/17/6
f 14/19/21 4/30/21 6/20/21
f 5/22/22 4/32/22 14/23/22
f 10/25/9 8/45/9 3/26/9
f 8/27/10 9/46/10 5/17/10
f 7/29/11 10/47/11 6/20/11
f 9/31/12 7/48/12 4/32/12
f 12/24/13 14/23/13 18/33/13
f 18/35/14 14/19/14 13/21/14
f 11/16/15 12/18/15 16/37/15
f 13/15/16 11/14/16 15/39/16
f 22/10/16 20/12/16 8/45/16
f 20/7/15 21/9/15 9/46/15
f 19/4/14 22/6/14 10/47/14
f 21/1/13 19/3/13 7/48/13
