# Blender v3.5.0 OBJ File: ''
# www.blender.org
mtllib head.mtl
o Cube
v -1.986652 0.002247 0.000000
v -0.250000 0.872181 -0.524270
v -0.250000 -0.853244 0.607388
v 0.250000 0.872181 -0.524270
v 1.963971 0.002247 0.000000
v 0.250000 -0.853244 0.607388
v 0.250000 0.872181 0.524270
v 0.250000 -0.853244 -0.607388
v 0.000000 -0.853244 0.607388
v 0.000000 0.872181 -0.524270
v 0.000000 -0.853244 -0.607388
v 0.000000 0.872181 0.524270
v -1.021678 -0.634436 -0.636684
v -1.021678 0.638931 0.636684
v -1.021678 -0.634436 0.636684
v -1.021678 0.638931 -0.636684
v 1.010337 -0.634436 0.636684
v 1.010337 0.638931 -0.636684
v 1.010337 -0.634436 -0.636684
v 1.010337 0.638931 0.636684
v -0.250000 -0.853244 -0.607388
v -0.250000 0.872181 0.524270
v 0.250000 0.009468 0.818967
v 0.000000 0.009468 0.818967
v -1.021678 0.002247 0.636684
v 1.010337 0.002247 0.636684
v -0.250000 0.009468 0.818967
v 0.250000 0.009468 -0.818967
v 0.000000 0.009468 -0.818967
v -1.021678 0.002247 -0.636684
v 1.010337 0.002247 -0.636684
v -0.250000 0.009468 -0.818967
v 0.250000 -0.421888 -0.943095
v 0.000000 -0.421888 -0.943095
v 1.487154 0.320589 -0.318342
v -1.021678 -0.316094 -0.636684
v 1.010337 -0.316094 -0.636684
v -1.504165 0.320589 -0.318342
v -0.250000 -0.421888 -0.943095
v 1.487154 -0.316094 -0.318342
v -1.504165 -0.316094 -0.318342
v 0.401921 0.285105 -0.818967
v 0.000000 0.440824 -0.818967
v -1.021678 0.320589 -0.636684
v 1.010337 0.320589 -0.636684
v -0.382931 0.285105 -0.818967
v -1.262922 0.002247 -0.477513
v 1.248746 0.002247 -0.477513
v 1.248746 -0.475265 -0.477513
v 1.487154 -0.316094 0.318342
v -1.504165 -0.316094 0.318342
v 0.401921 0.285105 0.818967
v 0.000000 0.440824 0.818967
v -1.021678 0.320589 0.636684
v 1.010337 0.320589 0.636684
v -0.382931 0.285105 0.818967
v 0.250000 0.225146 -0.818967
v 0.000000 0.225146 -0.818967
v -1.021678 0.161418 -0.636684
v 1.010337 0.161418 -0.636684
v -0.250000 0.225146 -0.818967
v -1.142300 -0.156923 -0.557098
v -1.262922 -0.475265 -0.477513
v 1.129542 -0.156923 -0.557098
v 0.250000 -0.421888 0.943095
v -1.504165 0.320589 0.318342
v 0.000000 -0.421888 0.943095
v -1.021678 -0.316094 0.636684
v 1.487154 0.320589 0.318342
v 1.010337 -0.316094 0.636684
v -1.262922 0.479760 -0.477513
v -0.250000 -0.421888 0.943095
v 0.250000 -0.206210 -0.818967
v 0.000000 -0.206210 -0.818967
v 1.248746 0.479760 -0.477513
v -1.021678 -0.156923 -0.636684
v 1.010337 -0.156923 -0.636684
v -0.250000 -0.206210 -0.818967
v -1.142300 0.161418 -0.557098
v 1.129542 0.161418 -0.557098
v 1.069939 0.002247 -0.596891
v 1.248746 0.002247 0.477513
v -1.081989 0.002247 -0.596891
v -1.262922 0.002247 0.477513
v 0.630169 -0.743840 0.516247
v 0.630169 0.755556 -0.433128
v 0.630169 0.755556 0.433128
v 0.630169 -0.743840 -0.516247
v 0.501036 0.062828 0.727825
v 0.501036 0.062828 -0.727825
v 0.464031 -0.368991 -0.727825
v 0.630169 0.380707 -0.727825
v 0.630169 0.193282 -0.727825
v 0.630169 0.380707 0.727825
v 0.630169 -0.181567 -0.727825
v 0.464031 -0.368991 0.727825
v -0.635839 0.755556 -0.433128
v -0.635839 -0.743840 0.516247
v -0.635839 -0.743840 -0.516247
v -0.635839 0.755556 0.433128
v -0.476322 0.081818 0.727825
v -0.476322 0.081818 -0.727825
v -0.440367 -0.368991 -0.727825
v -0.635839 0.380707 -0.727825
v -0.635839 0.193282 -0.727825
v -0.635839 0.380707 0.727825
v -0.635839 -0.181567 -0.727825
v -0.440367 -0.368991 0.727825
vt 0.737818 0.572125
vt 0.632945 0.572125
vt 0.606727 0.532819
vt 0.192727 0.493618
vt 0.220450 0.532897
vt 0.167330 0.513258
vt 0.210720 0.327187
vt 0.284520 0.368382
vt 0.185116 0.393391
vt 0.842691 0.086198
vt 0.947564 0.086198
vt 0.973782 0.129297
vt 0.795080 0.384871
vt 0.980162 0.444243
vt 0.810092 0.444243
vt 0.336849 0.143723
vt 0.314519 0.078934
vt 0.376078 0.097184
vt 0.307275 0.369391
vt 0.364525 0.301971
vt 0.407467 0.357495
vt 0.795080 0.344121
vt 0.995174 0.384871
vt 0.284520 0.286023
vt 0.185116 0.264112
vt 0.771738 0.327042
vt 0.599025 0.285862
vt 0.771738 0.285862
vt 0.790254 0.158806
vt 0.606727 0.119104
vt 0.737818 0.079403
vt 0.140770 0.148979
vt 0.140382 0.158911
vt 0.114210 0.158912
vt 0.344998 0.203427
vt 0.286455 0.157867
vt 0.790254 0.172396
vt 0.980162 0.237884
vt 0.810092 0.237884
vt 0.790254 0.503614
vt 0.973782 0.538698
vt 0.842691 0.573782
vt 0.490385 0.487400
vt 0.479721 0.445275
vt 0.530115 0.431131
vt 0.201724 0.430992
vt 0.245071 0.493617
vt 0.790254 0.493514
vt 0.614038 0.430867
vt 0.756725 0.430867
vt 0.771738 0.368221
vt 0.599025 0.327042
vt 0.402615 0.400115
vt 0.795080 0.303371
vt 0.995174 0.344121
vt 0.284520 0.291711
vt 0.371748 0.235560
vt 0.614038 0.222334
vt 0.756725 0.222334
vt 0.201724 0.222459
vt 0.432809 0.282805
vt 0.489860 0.220834
vt 0.501238 0.259675
vt 0.513732 0.340995
vt 0.444187 0.321646
vt 0.512615 0.298515
vt 0.399572 0.214930
vt 0.437636 0.115435
vt 0.472572 0.200486
vt 0.152578 0.248735
vt 0.104329 0.286010
vt 0.109270 0.222461
vt 0.109269 0.430994
vt 0.140382 0.493619
vt 0.114210 0.493620
vt 0.139793 0.286009
vt 0.104329 0.327189
vt 0.139793 0.327189
vt 0.104329 0.368369
vt 0.067656 0.327183
vt 0.000000 0.368383
vt 0.000000 0.327204
vt 0.067656 0.286004
vt 0.000000 0.286024
vt 0.078451 0.403629
vt 0.035693 0.493622
vt 0.018877 0.431008
vt 0.078452 0.254659
vt 0.018877 0.222475
vt 0.063416 0.119185
vt 0.088038 0.158912
vt 0.035693 0.158913
vt 0.091140 0.572179
vt 0.195829 0.572177
vt 0.146587 0.650736
vt 0.114985 0.513259
vt 0.063416 0.532900
vt 0.195829 0.079454
vt 0.091140 0.079457
vt 0.146587 0.000000
vt 0.170906 0.222460
vt 0.175257 0.286009
vt 0.170905 0.430993
vt 0.166554 0.493619
vt 0.220450 0.119182
vt 0.192727 0.158910
vt 0.167330 0.139047
vt 0.175257 0.327188
vt 0.175257 0.368367
vt 0.140770 0.503439
vt 0.139793 0.368368
vt 0.149455 0.409723
vt 0.088037 0.493620
vt 0.114985 0.139048
vt 0.421431 0.243965
vt 0.447058 0.365930
vt 0.450656 0.543669
vt 0.429327 0.459419
vt 0.947564 0.573782
vt 0.895127 0.643951
vt 0.387242 0.129579
vt 0.166554 0.158911
vt 1.000000 0.172396
vt 0.415307 0.050645
vt 0.488030 0.101291
vt 0.141933 0.119183
vt 0.551444 0.515380
vt 0.522380 0.613774
vt 0.141933 0.532899
vt 0.067656 0.368362
vt 0.569131 0.251234
vt 0.580509 0.290075
vt 0.522768 0.160222
vt 0.580385 0.356911
vt 0.557753 0.212394
vt 0.580509 0.416987
vt 0.632945 0.079403
vt 0.685381 0.000000
vt 0.342584 0.000000
vt 0.580509 0.493514
vt 0.378933 0.473563
vt 0.599025 0.368221
vt 1.000000 0.503614
vt 0.245071 0.158909
vt 0.580509 0.158806
vt 0.995174 0.303371
vt 0.685381 0.650736
vt 0.284520 0.327203
vt 0.895127 0.000000
vt 0.295897 0.330551
vt 0.285316 0.229496
vt 0.266231 0.431008
vt 0.342932 0.426185
vt 0.266231 0.222475
vn 0.5553 0.8317 0.0000
vn 0.5553 0.0000 -0.8317
vn 0.1855 0.4788 -0.8581
vn -0.5507 -0.8347 0.0000
vn 0.2766 -0.9610 0.0000
vn -0.5507 -0.0000 0.8347
vn 0.1855 0.4788 0.8581
vn 0.0000 -1.0000 0.0000
vn -0.1931 0.4748 -0.8587
vn 0.0000 1.0000 0.0000
vn -0.5507 0.8347 0.0000
vn -0.5507 0.0000 -0.8347
vn -0.2299 0.0000 0.9732
vn -0.2728 -0.9621 0.0000
vn 0.5553 -0.8317 0.0000
vn 0.5553 0.0000 0.8317
vn 0.2331 0.0000 -0.9724
vn 0.2933 0.9560 0.0000
vn 0.1481 0.4740 0.8680
vn -0.1931 0.4748 0.8587
vn -0.2893 0.9572 0.0000
vn -0.1371 0.4690 -0.8725
vn 0.0000 0.2765 0.9610
vn 0.6682 0.2057 0.7149
vn -0.1560 -0.0124 0.9877
vn -0.2198 0.1331 -0.9664
vn 0.0000 0.0000 -1.0000
vn 0.0000 -0.6142 -0.7892
vn -0.1153 -0.5265 -0.8423
vn -0.3067 -0.3415 -0.8884
vn -0.1796 -0.3982 -0.8995
vn 0.1562 -0.1546 -0.9756
vn -0.3736 0.0000 -0.9276
vn 0.0000 0.0000 1.0000
vn 0.3722 -0.2052 0.9052
vn -0.1527 -0.0815 0.9849
vn 0.0000 0.4988 -0.8667
vn 0.1773 -0.1572 -0.9715
vn -0.6439 0.3817 -0.6632
vn 0.0000 -0.6142 0.7892
vn 0.2980 0.0000 0.9546
vn 0.3138 -0.3574 0.8797
vn -0.1153 -0.5265 0.8423
vn 0.5992 0.3993 -0.6939
vn 0.1679 -0.0682 0.9834
vn 0.3413 0.0000 -0.9400
vn 0.1741 -0.4411 -0.8804
vn 0.3138 -0.3574 -0.8797
vn 0.2242 0.1185 -0.9673
vn 0.1659 -0.0142 0.9860
vn 0.2331 0.0000 0.9724
vn 0.1481 0.4740 -0.8680
vn -0.3067 -0.3415 0.8884
vn -0.1680 -0.1753 -0.9701
vn -0.4209 -0.2030 0.8841
vn -0.1344 -0.1923 -0.9721
vn -0.2299 0.0000 -0.9732
vn 0.2980 0.0000 -0.9546
vn -0.7106 0.1946 0.6762
vn -0.1371 0.4690 0.8725
vn 0.0000 0.5641 -0.8257
vn 0.0000 0.5641 0.8257
vn 0.2222 0.6026 0.7665
vn -0.2254 0.6021 -0.7659
vn 0.3536 0.5781 0.7353
vn -0.3491 0.5792 -0.7367
vn 0.3467 -0.0297 0.9375
vn -0.1648 0.0000 0.9863
vn 0.1867 0.0986 -0.9775
vn 0.1646 0.0000 -0.9864
vn -0.7284 -0.4208 -0.5407
vn -0.3390 0.0000 -0.9408
vn -0.1982 -0.2836 -0.9382
vn 0.4270 -0.1735 0.8874
vn -0.2377 -0.2479 -0.9392
vn -0.1776 -0.4119 0.8938
vn 0.6870 -0.4463 0.5734
vn 0.1646 0.0000 0.9864
vn 0.2408 -0.2135 -0.9468
vn 0.2114 -0.2092 -0.9548
vn 0.3708 0.0000 -0.9287
vn 0.6870 -0.4463 -0.5734
vn 0.1762 0.0000 0.9844
vn -0.2254 0.6021 0.7659
vn 0.3536 0.5781 -0.7353
vn -0.7284 -0.4208 0.5407
vn -0.4019 -0.2145 0.8902
vn -0.1776 -0.4119 -0.8938
vn -0.1793 0.1086 -0.9778
vn -0.3817 -0.0304 0.9238
vn 0.2222 0.6026 -0.7665
vn -0.3491 0.5792 0.7367
usemtl Material
s off
f 69/1/1 35/2/1 75/3/1
f 45/4/2 75/5/2 80/6/2
f 43/7/3 4/8/3 42/9/3
f 51/10/4 41/11/4 63/12/4
f 6/13/5 88/14/5 85/15/5
f 54/16/6 66/17/6 84/18/6
f 7/19/7 53/20/7 52/21/7
f 9/22/8 8/23/8 6/13/8
f 2/24/9 43/7/9 46/25/9
f 12/26/10 2/27/10 22/28/10
f 14/29/11 71/30/11 66/31/11
f 83/32/12 30/33/12 76/34/12
f 106/35/13 14/36/13 54/16/13
f 15/37/14 99/38/14 98/39/14
f 17/40/15 49/41/15 50/42/15
f 82/43/16 26/44/16 70/45/16
f 92/46/17 18/47/17 45/4/17
f 20/48/18 86/49/18 87/50/18
f 7/51/10 10/52/10 12/26/10
f 94/53/19 7/19/19 52/21/19
f 3/54/8 11/55/8 9/22/8
f 53/20/20 22/56/20 56/57/20
f 22/28/21 97/58/21 100/59/21
f 104/60/22 2/24/22 46/25/22
f 24/61/23 72/62/23 67/63/23
f 96/64/24 23/65/24 65/66/24
f 101/67/25 68/68/25 108/69/25
f 23/65/23 67/63/23 65/66/23
f 102/70/26 78/71/26 107/72/26
f 95/73/17 31/74/17 77/75/17
f 32/76/27 74/77/27 78/71/27
f 29/78/27 73/79/27 74/77/27
f 34/80/28 8/81/28 11/82/28
f 39/83/28 11/82/28 21/84/28
f 91/85/29 19/86/29 88/87/29
f 103/88/30 21/84/30 99/89/30
f 63/90/12 36/91/12 13/92/12
f 40/93/2 35/94/2 5/95/2
f 64/96/2 40/93/2 49/97/2
f 38/98/12 41/99/12 1/100/12
f 105/101/31 46/25/31 61/102/31
f 93/103/17 45/4/17 60/104/17
f 71/105/12 44/106/12 79/107/12
f 61/102/27 43/7/27 58/108/27
f 43/7/27 57/109/27 58/108/27
f 60/104/2 80/6/2 81/110/2
f 31/74/2 81/110/2 77/75/2
f 58/108/27 28/111/27 29/78/27
f 61/102/27 29/78/27 32/76/27
f 93/103/32 31/74/32 90/112/32
f 102/70/33 61/102/33 32/76/33
f 37/113/2 49/97/2 19/86/2
f 41/99/12 62/114/12 63/90/12
f 53/20/34 27/115/34 24/61/34
f 89/116/35 52/21/35 23/65/35
f 69/117/16 55/118/16 82/43/16
f 50/42/15 40/119/15 5/120/15
f 106/35/36 25/121/36 101/67/36
f 79/107/12 59/122/12 83/32/12
f 23/65/34 53/20/34 24/61/34
f 25/121/6 84/18/6 68/68/6
f 15/37/4 63/12/4 13/123/4
f 68/68/6 51/124/6 15/125/6
f 47/126/12 83/32/12 62/114/12
f 69/117/16 50/127/16 5/128/16
f 77/75/2 64/96/2 37/113/2
f 81/110/2 48/129/2 64/96/2
f 38/98/12 79/107/12 47/126/12
f 74/77/37 33/130/37 34/80/37
f 78/71/37 34/80/37 39/83/37
f 95/73/38 37/113/38 91/85/38
f 103/88/39 78/71/39 39/83/39
f 65/66/40 9/131/40 6/132/40
f 98/133/41 68/68/41 15/125/41
f 96/64/42 6/132/42 85/134/42
f 67/63/40 3/135/40 9/131/40
f 50/127/16 70/45/16 17/136/16
f 62/114/12 76/34/12 36/91/12
f 66/31/11 38/137/11 1/138/11
f 51/124/6 66/17/6 1/139/6
f 80/6/2 35/94/2 48/129/2
f 20/48/1 75/3/1 18/140/1
f 17/136/43 96/64/43 85/134/43
f 73/79/44 91/85/44 33/130/44
f 26/44/45 94/53/45 89/116/45
f 57/109/46 90/112/46 28/111/46
f 42/9/47 93/103/47 57/109/47
f 8/81/48 91/85/48 88/87/48
f 73/79/49 90/112/49 95/73/49
f 70/45/50 89/116/50 96/64/50
f 20/141/51 94/53/51 55/118/51
f 87/50/18 4/142/18 7/51/18
f 4/8/52 92/46/52 42/9/52
f 85/15/5 19/143/5 17/40/5
f 3/135/53 108/69/53 98/133/53
f 36/91/54 107/72/54 103/88/54
f 56/57/55 101/67/55 27/115/55
f 30/33/56 105/101/56 102/70/56
f 44/106/57 105/101/57 59/122/57
f 36/91/58 99/89/58 13/92/58
f 30/33/57 107/72/57 76/34/57
f 27/115/59 108/69/59 72/62/59
f 16/144/57 104/60/57 44/106/57
f 100/59/21 16/145/21 14/29/21
f 98/39/14 21/146/14 3/54/14
f 22/56/60 106/35/60 56/57/60
f 69/1/1 5/147/1 35/2/1
f 45/4/2 18/47/2 75/5/2
f 43/7/61 10/148/61 4/8/61
f 51/10/4 1/149/4 41/11/4
f 6/13/5 8/23/5 88/14/5
f 54/16/6 14/36/6 66/17/6
f 7/19/62 12/150/62 53/20/62
f 9/22/8 11/55/8 8/23/8
f 2/24/61 10/148/61 43/7/61
f 12/26/10 10/52/10 2/27/10
f 14/29/11 16/145/11 71/30/11
f 83/32/12 59/122/12 30/33/12
f 106/35/63 100/151/63 14/36/63
f 15/37/14 13/123/14 99/38/14
f 17/40/15 19/143/15 49/41/15
f 82/43/16 55/118/16 26/44/16
f 92/46/64 86/152/64 18/47/64
f 20/48/18 18/140/18 86/49/18
f 7/51/10 4/142/10 10/52/10
f 94/53/65 87/153/65 7/19/65
f 3/54/8 21/146/8 11/55/8
f 53/20/62 12/150/62 22/56/62
f 22/28/21 2/27/21 97/58/21
f 104/60/66 97/154/66 2/24/66
f 24/61/23 27/115/23 72/62/23
f 96/64/67 89/116/67 23/65/67
f 101/67/68 25/121/68 68/68/68
f 23/65/23 24/61/23 67/63/23
f 102/70/33 32/76/33 78/71/33
f 95/73/69 90/112/69 31/74/69
f 32/76/27 29/78/27 74/77/27
f 29/78/27 28/111/27 73/79/27
f 34/80/28 33/130/28 8/81/28
f 39/83/28 34/80/28 11/82/28
f 91/85/70 37/113/70 19/86/70
f 103/88/71 39/83/71 21/84/71
f 63/90/12 62/114/12 36/91/12
f 40/93/2 48/129/2 35/94/2
f 64/96/2 48/129/2 40/93/2
f 38/98/12 47/126/12 41/99/12
f 105/101/72 104/60/72 46/25/72
f 93/103/17 92/46/17 45/4/17
f 71/105/12 16/144/12 44/106/12
f 61/102/27 46/25/27 43/7/27
f 43/7/27 42/9/27 57/109/27
f 60/104/2 45/4/2 80/6/2
f 31/74/2 60/104/2 81/110/2
f 58/108/27 57/109/27 28/111/27
f 61/102/27 58/108/27 29/78/27
f 93/103/17 60/104/17 31/74/17
f 102/70/73 105/101/73 61/102/73
f 37/113/2 64/96/2 49/97/2
f 41/99/12 47/126/12 62/114/12
f 53/20/34 56/57/34 27/115/34
f 89/116/74 94/53/74 52/21/74
f 69/117/16 20/141/16 55/118/16
f 50/42/15 49/41/15 40/119/15
f 106/35/13 54/16/13 25/121/13
f 79/107/12 44/106/12 59/122/12
f 23/65/34 52/21/34 53/20/34
f 25/121/6 54/16/6 84/18/6
f 15/37/4 51/10/4 63/12/4
f 68/68/6 84/18/6 51/124/6
f 47/126/12 79/107/12 83/32/12
f 69/117/16 82/43/16 50/127/16
f 77/75/2 81/110/2 64/96/2
f 81/110/2 80/6/2 48/129/2
f 38/98/12 71/105/12 79/107/12
f 74/77/37 73/79/37 33/130/37
f 78/71/37 74/77/37 34/80/37
f 95/73/17 77/75/17 37/113/17
f 103/88/75 107/72/75 78/71/75
f 65/66/40 67/63/40 9/131/40
f 98/133/76 108/69/76 68/68/76
f 96/64/77 65/66/77 6/132/77
f 67/63/40 72/62/40 3/135/40
f 50/127/16 82/43/16 70/45/16
f 62/114/12 83/32/12 76/34/12
f 66/31/11 71/30/11 38/137/11
f 51/124/6 84/18/6 66/17/6
f 80/6/2 75/5/2 35/94/2
f 20/48/1 69/1/1 75/3/1
f 17/136/78 70/45/78 96/64/78
f 73/79/79 95/73/79 91/85/79
f 26/44/51 55/118/51 94/53/51
f 57/109/80 93/103/80 90/112/80
f 42/9/81 92/46/81 93/103/81
f 8/81/82 33/130/82 91/85/82
f 73/79/46 28/111/46 90/112/46
f 70/45/83 26/44/83 89/116/83
f 20/141/84 87/153/84 94/53/84
f 87/50/18 86/49/18 4/142/18
f 4/8/85 86/152/85 92/46/85
f 85/15/5 88/14/5 19/143/5
f 3/135/86 72/62/86 108/69/86
f 36/91/57 76/34/57 107/72/57
f 56/57/87 106/35/87 101/67/87
f 30/33/57 59/122/57 105/101/57
f 44/106/57 104/60/57 105/101/57
f 36/91/88 103/88/88 99/89/88
f 30/33/89 102/70/89 107/72/89
f 27/115/90 101/67/90 108/69/90
f 16/144/91 97/154/91 104/60/91
f 100/59/21 97/58/21 16/145/21
f 98/39/14 99/38/14 21/146/14
f 22/56/92 100/151/92 106/35/92
