# Blender v3.5.0 OBJ File: ''
# www.blender.org
mtllib weapon.mtl
o 円柱
v 0.000000 3.000000 0.360396
v 0.000000 13.000000 0.360396
v -0.070310 3.000000 0.353471
v -0.070310 13.000000 0.353471
v -0.137918 3.000000 0.332962
v -0.137918 13.000000 0.332962
v -0.200225 3.000000 0.299658
v -0.200225 13.000000 0.299658
v -0.254838 3.000000 0.254838
v -0.254838 13.000000 0.254838
v -0.299658 3.000000 0.200225
v -0.299658 13.000000 0.200225
v -0.332962 3.000000 0.137918
v -0.332962 13.000000 0.137918
v -0.353471 3.000000 0.070310
v -0.353471 13.000000 0.070310
v -0.360396 3.000000 0.000000
v -0.360396 13.000000 0.000000
v -0.353471 3.000000 -0.070310
v -0.353471 13.000000 -0.070310
v -0.332962 3.000000 -0.137918
v -0.332962 13.000000 -0.137918
v -0.299658 3.000000 -0.200225
v -0.299658 13.000000 -0.200225
v -0.254838 3.000000 -0.254838
v -0.254838 13.000000 -0.254838
v -0.200225 3.000000 -0.299658
v -0.200225 13.000000 -0.299658
v -0.137918 3.000000 -0.332962
v -0.137918 13.000000 -0.332962
v -0.070310 3.000000 -0.353471
v -0.070310 13.000000 -0.353471
v 0.000000 3.000000 -0.360396
v 0.000000 13.000000 -0.360396
v 0.070310 3.000000 -0.353471
v 0.070310 13.000000 -0.353471
v 0.137918 3.000000 -0.332962
v 0.137918 13.000000 -0.332962
v 0.200225 3.000000 -0.299658
v 0.200225 13.000000 -0.299658
v 0.254838 3.000000 -0.254838
v 0.254838 13.000000 -0.254838
v 0.299658 3.000000 -0.200225
v 0.299658 13.000000 -0.200225
v 0.332962 3.000000 -0.137918
v 0.332962 13.000000 -0.137918
v 0.353471 3.000000 -0.070310
v 0.353471 13.000000 -0.070310
v 0.360396 3.000000 0.000000
v 0.360396 13.000000 0.000000
v 0.353471 3.000000 0.070310
v 0.353471 13.000000 0.070310
v 0.332962 3.000000 0.137918
v 0.332962 13.000000 0.137918
v 0.299658 3.000000 0.200225
v 0.299658 13.000000 0.200225
v 0.254838 3.000000 0.254838
v 0.254838 13.000000 0.254838
v 0.200225 3.000000 0.299658
v 0.200225 13.000000 0.299658
v 0.137918 3.000000 0.332962
v 0.137918 13.000000 0.332962
v 0.070310 3.000000 0.353471
v 0.070310 13.000000 0.353471
vt 0.112315 1.000000
vt 0.106440 0.000000
vt 0.112315 0.000000
vt 0.106440 1.000000
vt 0.101445 0.000000
vt 0.050722 1.000000
vt 0.044848 0.000000
vt 0.050722 0.000000
vt 0.044848 1.000000
vt 0.038321 0.000000
vt 0.038321 1.000000
vt 0.031392 0.000000
vt 0.031391 1.000000
vt 0.024327 0.000000
vt 0.024326 1.000000
vt 0.017397 0.000000
vt 0.017397 1.000000
vt 0.010870 0.000000
vt 0.010870 1.000000
vt 0.004996 0.000000
vt 0.004996 1.000000
vt 0.000000 0.000000
vt 0.202889 1.000000
vt 0.197015 0.000000
vt 0.202889 0.000000
vt 0.197015 1.000000
vt 0.190488 0.000000
vt 0.190488 1.000000
vt 0.183559 0.000000
vt 0.183558 1.000000
vt 0.176494 0.000000
vt 0.176493 1.000000
vt 0.169564 0.000000
vt 0.169564 1.000000
vt 0.163037 0.000000
vt 0.163037 1.000000
vt 0.157163 0.000000
vt 0.157163 1.000000
vt 0.152167 0.000000
vt 0.101445 1.000000
vt 0.095570 0.000000
vt 0.101445 0.000000
vt 0.095570 1.000000
vt 0.089043 0.000000
vt 0.089043 1.000000
vt 0.082114 0.000000
vt 0.082114 1.000000
vt 0.075049 0.000000
vt 0.075049 1.000000
vt 0.068120 0.000000
vt 0.068120 1.000000
vt 0.061592 0.000000
vt 0.061592 1.000000
vt 0.055718 0.000000
vt 0.055718 1.000000
vt 0.050722 0.000000
vt 0.152167 1.000000
vt 0.146293 0.000000
vt 0.152167 0.000000
vt 0.146293 1.000000
vt 0.139765 0.000000
vt 0.139765 1.000000
vt 0.132836 0.000000
vt 0.132836 1.000000
vt 0.125771 0.000000
vt 0.273243 0.097136
vt 0.249217 0.142086
vt 0.204268 0.118060
vt 0.125771 1.000000
vt 0.118842 0.000000
vt 0.118842 1.000000
vt 0.274621 0.032334
vt 0.242288 0.071732
vt 0.202889 0.039399
vt 0.101445 1.000000
vt 0.000000 1.000000
vt 0.152167 1.000000
vt 0.050722 1.000000
vt 0.202889 0.111131
vt 0.202889 0.104066
vt 0.204268 0.097136
vt 0.206971 0.090609
vt 0.210896 0.084735
vt 0.215892 0.079739
vt 0.221766 0.075814
vt 0.228294 0.073110
vt 0.235223 0.071732
vt 0.242288 0.071732
vt 0.249217 0.073110
vt 0.255744 0.075814
vt 0.261619 0.079739
vt 0.266614 0.084735
vt 0.270539 0.090609
vt 0.274621 0.104066
vt 0.274621 0.111131
vt 0.273243 0.118060
vt 0.270539 0.124587
vt 0.266614 0.130461
vt 0.261619 0.135457
vt 0.255744 0.139382
vt 0.242288 0.143464
vt 0.235223 0.143464
vt 0.228294 0.142086
vt 0.221766 0.139382
vt 0.215892 0.135457
vt 0.210896 0.130461
vt 0.206971 0.124587
vt 0.202889 0.032334
vt 0.204268 0.025404
vt 0.206971 0.018877
vt 0.210896 0.013003
vt 0.215892 0.008007
vt 0.235223 0.000000
vt 0.221766 0.004082
vt 0.228294 0.001378
vt 0.242288 0.000000
vt 0.249217 0.001378
vt 0.255744 0.004082
vt 0.261619 0.008007
vt 0.266614 0.013003
vt 0.270539 0.018877
vt 0.273243 0.025404
vt 0.274621 0.039399
vt 0.273243 0.046328
vt 0.270539 0.052855
vt 0.266614 0.058729
vt 0.261619 0.063725
vt 0.255744 0.067650
vt 0.249217 0.070354
vt 0.235223 0.071732
vt 0.228294 0.070354
vt 0.221766 0.067650
vt 0.215892 0.063725
vt 0.210896 0.058729
vt 0.206971 0.052855
vt 0.204268 0.046328
vn -0.0980 0.0000 0.9952
vn -0.2903 0.0000 0.9569
vn -0.4714 0.0000 0.8819
vn -0.6344 0.0000 0.7730
vn -0.7730 0.0000 0.6344
vn -0.8819 0.0000 0.4714
vn -0.9569 0.0000 0.2903
vn -0.9952 0.0000 0.0980
vn -0.9952 0.0000 -0.0980
vn -0.9569 0.0000 -0.2903
vn -0.8819 0.0000 -0.4714
vn -0.7730 0.0000 -0.6344
vn -0.6344 0.0000 -0.7730
vn -0.4714 0.0000 -0.8819
vn -0.2903 0.0000 -0.9569
vn -0.0980 0.0000 -0.9952
vn 0.0980 0.0000 -0.9952
vn 0.2903 0.0000 -0.9569
vn 0.4714 0.0000 -0.8819
vn 0.6344 0.0000 -0.7730
vn 0.7730 0.0000 -0.6344
vn 0.8819 0.0000 -0.4714
vn 0.9569 0.0000 -0.2903
vn 0.9952 0.0000 -0.0980
vn 0.9952 0.0000 0.0980
vn 0.9569 0.0000 0.2903
vn 0.8819 0.0000 0.4714
vn 0.7730 0.0000 0.6344
vn 0.6344 0.0000 0.7730
vn 0.4714 0.0000 0.8819
vn 0.0000 1.0000 0.0000
vn 0.2903 0.0000 0.9569
vn 0.0980 0.0000 0.9952
vn 0.0000 -1.0000 -0.0000
vn 0.0000 1.0000 0.0001
vn 0.0000 1.0000 -0.0001
usemtl マテリアル
s off
f 2/1/1 3/2/1 1/3/1
f 4/4/2 5/5/2 3/2/2
f 6/6/3 7/7/3 5/8/3
f 8/9/4 9/10/4 7/7/4
f 10/11/5 11/12/5 9/10/5
f 12/13/6 13/14/6 11/12/6
f 14/15/7 15/16/7 13/14/7
f 16/17/8 17/18/8 15/16/8
f 18/19/9 19/20/9 17/18/9
f 20/21/10 21/22/10 19/20/10
f 22/23/11 23/24/11 21/25/11
f 24/26/12 25/27/12 23/24/12
f 26/28/13 27/29/13 25/27/13
f 28/30/14 29/31/14 27/29/14
f 30/32/15 31/33/15 29/31/15
f 32/34/16 33/35/16 31/33/16
f 34/36/17 35/37/17 33/35/17
f 36/38/18 37/39/18 35/37/18
f 38/40/19 39/41/19 37/42/19
f 40/43/20 41/44/20 39/41/20
f 42/45/21 43/46/21 41/44/21
f 44/47/22 45/48/22 43/46/22
f 46/49/23 47/50/23 45/48/23
f 48/51/24 49/52/24 47/50/24
f 50/53/25 51/54/25 49/52/25
f 52/55/26 53/56/26 51/54/26
f 54/57/27 55/58/27 53/59/27
f 56/60/28 57/61/28 55/58/28
f 58/62/29 59/63/29 57/61/29
f 60/64/30 61/65/30 59/63/30
f 38/66/31 22/67/31 6/68/31
f 62/69/32 63/70/32 61/65/32
f 64/71/33 1/3/33 63/70/33
f 31/72/34 47/73/34 63/74/34
f 2/1/1 4/4/1 3/2/1
f 4/4/2 6/75/2 5/5/2
f 6/6/3 8/9/3 7/7/3
f 8/9/4 10/11/4 9/10/4
f 10/11/5 12/13/5 11/12/5
f 12/13/6 14/15/6 13/14/6
f 14/15/7 16/17/7 15/16/7
f 16/17/8 18/19/8 17/18/8
f 18/19/9 20/21/9 19/20/9
f 20/21/10 22/76/10 21/22/10
f 22/23/11 24/26/11 23/24/11
f 24/26/12 26/28/12 25/27/12
f 26/28/13 28/30/13 27/29/13
f 28/30/14 30/32/14 29/31/14
f 30/32/15 32/34/15 31/33/15
f 32/34/16 34/36/16 33/35/16
f 34/36/17 36/38/17 35/37/17
f 36/38/18 38/77/18 37/39/18
f 38/40/19 40/43/19 39/41/19
f 40/43/20 42/45/20 41/44/20
f 42/45/21 44/47/21 43/46/21
f 44/47/22 46/49/22 45/48/22
f 46/49/23 48/51/23 47/50/23
f 48/51/24 50/53/24 49/52/24
f 50/53/25 52/55/25 51/54/25
f 52/55/26 54/78/26 53/56/26
f 54/57/27 56/60/27 55/58/27
f 56/60/28 58/62/28 57/61/28
f 58/62/29 60/64/29 59/63/29
f 60/64/30 62/69/30 61/65/30
f 6/68/31 4/79/31 2/80/31
f 2/80/31 64/81/31 62/82/31
f 62/82/31 60/83/31 58/84/31
f 58/84/35 56/85/35 54/86/35
f 54/86/31 52/87/31 50/88/31
f 50/88/31 48/89/31 46/90/31
f 46/90/36 44/91/36 42/92/36
f 42/92/31 40/93/31 38/66/31
f 38/66/31 36/94/31 34/95/31
f 34/95/31 32/96/31 30/97/31
f 30/97/31 28/98/31 26/99/31
f 26/99/36 24/100/36 22/67/36
f 22/67/31 20/101/31 18/102/31
f 18/102/31 16/103/31 14/104/31
f 14/104/35 12/105/35 10/106/35
f 10/106/31 8/107/31 6/68/31
f 6/68/31 2/80/31 54/86/31
f 2/80/31 62/82/31 54/86/31
f 62/82/31 58/84/31 54/86/31
f 54/86/31 50/88/31 38/66/31
f 50/88/31 46/90/31 38/66/31
f 46/90/31 42/92/31 38/66/31
f 38/66/31 34/95/31 22/67/31
f 34/95/31 30/97/31 22/67/31
f 30/97/31 26/99/31 22/67/31
f 22/67/31 18/102/31 6/68/31
f 18/102/31 14/104/31 6/68/31
f 14/104/31 10/106/31 6/68/31
f 6/68/31 54/86/31 38/66/31
f 62/69/32 64/71/32 63/70/32
f 64/71/33 2/1/33 1/3/33
f 63/74/34 1/108/34 3/109/34
f 3/109/34 5/110/34 7/111/34
f 7/111/34 9/112/34 15/113/34
f 9/112/34 11/114/34 15/113/34
f 11/114/34 13/115/34 15/113/34
f 15/113/34 17/116/34 19/117/34
f 19/117/34 21/118/34 23/119/34
f 23/119/34 25/120/34 31/72/34
f 25/120/34 27/121/34 31/72/34
f 27/121/34 29/122/34 31/72/34
f 31/72/34 33/123/34 35/124/34
f 35/124/34 37/125/34 39/126/34
f 39/126/34 41/127/34 47/73/34
f 41/127/34 43/128/34 47/73/34
f 43/128/34 45/129/34 47/73/34
f 47/73/34 49/130/34 51/131/34
f 51/131/34 53/132/34 55/133/34
f 55/133/34 57/134/34 63/74/34
f 57/134/34 59/135/34 63/74/34
f 59/135/34 61/136/34 63/74/34
f 63/74/34 3/109/34 15/113/34
f 3/109/34 7/111/34 15/113/34
f 15/113/34 19/117/34 31/72/34
f 19/117/34 23/119/34 31/72/34
f 31/72/34 35/124/34 47/73/34
f 35/124/34 39/126/34 47/73/34
f 47/73/34 51/131/34 63/74/34
f 51/131/34 55/133/34 63/74/34
f 63/74/34 15/113/34 31/72/34
