# Blender v3.5.0 OBJ File: 'boxPlayer.blend'
# www.blender.org
mtllib LFoot.mtl
o 立方体.001
v -0.484698 -0.992221 -1.000000
v -0.367259 -0.385261 -0.812083
v -0.484698 -0.992221 1.000000
v -0.367259 -0.347153 0.211492
v 0.435604 -0.992221 -1.000000
v 0.318165 -0.385261 -0.812083
v 0.435604 -0.992221 1.000000
v 0.318165 -0.347153 0.211492
vt 0.685524 0.895464
vt 0.590102 0.719150
vt 0.595554 0.868117
vt 0.581199 0.864648
vt 0.464354 0.753465
vt 0.447263 0.864648
vt 0.985496 0.304424
vt 0.890074 0.480738
vt 0.985496 0.595492
vt 0.903078 0.738332
vt 0.995548 0.621488
vt 0.903078 0.604396
vt 0.604396 0.595493
vt 0.738332 0.304424
vt 0.604396 0.304424
vt 0.564107 0.604396
vt 0.564107 0.753465
vt 0.685524 0.604396
vt 0.895526 0.331771
vt 0.995548 0.721240
vt 0.738332 0.595493
vt 0.464354 0.604396
vn -0.9814 0.1921 -0.0072
vn 0.0000 0.7740 0.6332
vn 0.9838 0.1791 0.0000
vn 0.0000 0.2958 -0.9553
vn 0.0000 -1.0000 0.0000
vn 0.0000 0.9993 -0.0372
vn -0.9838 0.1791 0.0000
vn 0.9814 0.1921 -0.0072
usemtl マテリアル.003
s off
f 1/1/1 4/2/1 2/3/1
f 7/4/2 4/5/2 3/6/2
f 5/7/3 8/8/3 7/9/3
f 1/10/4 6/11/4 5/12/4
f 1/13/5 7/14/5 3/15/5
f 6/16/6 4/5/6 8/17/6
f 1/1/7 3/18/7 4/2/7
f 7/4/2 8/17/2 4/5/2
f 5/7/8 6/19/8 8/8/8
f 1/10/4 2/20/4 6/11/4
f 1/13/5 5/21/5 7/14/5
f 6/16/6 2/22/6 4/5/6
