# Blender v3.5.0 OBJ File: ''
# www.blender.org
mtllib Flag.mtl
o 立方体
v 2.168781 6.048355 0.000000
v 0.168781 5.048355 0.000000
v 0.168781 7.048355 0.000000
v -0.500000 0.500000 0.500000
v -0.500000 -0.500000 0.500000
v -0.500000 0.500000 -0.500000
v -0.500000 -0.500000 -0.500000
v 0.500000 0.500000 0.500000
v 0.500000 -0.500000 0.500000
v 0.500000 0.500000 -0.500000
v 0.500000 -0.500000 -0.500000
v 0.000000 -0.453750 0.229032
v 0.000000 7.606250 0.229032
v -0.044682 -0.453750 0.224631
v -0.044682 7.606250 0.224631
v -0.087647 -0.453750 0.211598
v -0.087647 7.606250 0.211598
v -0.127243 -0.453750 0.190433
v -0.127243 7.606250 0.190433
v -0.161950 -0.453750 0.161950
v -0.161950 7.606250 0.161950
v -0.190433 -0.453750 0.127243
v -0.190433 7.606250 0.127243
v -0.211598 -0.453750 0.087647
v -0.211598 7.606250 0.087647
v -0.224631 -0.453750 0.044682
v -0.224631 7.606250 0.044682
v -0.229032 -0.453750 0.000000
v -0.229032 7.606250 0.000000
v -0.224631 -0.453750 -0.044682
v -0.224631 7.606250 -0.044682
v -0.211598 -0.453750 -0.087647
v -0.211598 7.606250 -0.087647
v -0.190433 -0.453750 -0.127243
v -0.190433 7.606250 -0.127243
v -0.161950 -0.453750 -0.161950
v -0.161950 7.606250 -0.161950
v -0.127243 -0.453750 -0.190433
v -0.127243 7.606250 -0.190433
v -0.087647 -0.453750 -0.211598
v -0.087647 7.606250 -0.211598
v -0.044682 -0.453750 -0.224631
v -0.044682 7.606250 -0.224631
v 0.000000 -0.453750 -0.229032
v 0.000000 7.606250 -0.229032
v 0.044682 -0.453750 -0.224631
v 0.044682 7.606250 -0.224631
v 0.087647 -0.453750 -0.211598
v 0.087647 7.606250 -0.211598
v 0.127243 -0.453750 -0.190433
v 0.127243 7.606250 -0.190433
v 0.161950 -0.453750 -0.161950
v 0.161950 7.606250 -0.161950
v 0.190433 -0.453750 -0.127243
v 0.190433 7.606250 -0.127243
v 0.211598 -0.453750 -0.087647
v 0.211598 7.606250 -0.087647
v 0.224631 -0.453750 -0.044682
v 0.224631 7.606250 -0.044682
v 0.229032 -0.453750 0.000000
v 0.229032 7.606250 0.000000
v 0.224631 -0.453750 0.044682
v 0.224631 7.606250 0.044682
v 0.211598 -0.453750 0.087647
v 0.211598 7.606250 0.087647
v 0.190433 -0.453750 0.127243
v 0.190433 7.606250 0.127243
v 0.161950 -0.453750 0.161950
v 0.161950 7.606250 0.161950
v 0.127243 -0.453750 0.190433
v 0.127243 7.606250 0.190433
v 0.087647 -0.453750 0.211598
v 0.087647 7.606250 0.211598
v 0.044682 -0.453750 0.224631
v 0.044682 7.606250 0.224631
vt 0.079724 0.703498
vt 0.172484 0.657118
vt 0.172484 0.773068
vt 0.836556 0.079724
vt 0.784702 0.131579
vt 0.784702 0.079724
vt 0.754539 0.708973
vt 0.806393 0.657118
vt 0.806393 0.708973
vt 0.543236 0.708973
vt 0.595090 0.657118
vt 0.595090 0.708973
vt 0.383787 0.868421
vt 0.331933 0.920276
vt 0.331933 0.868421
vt 0.784702 0.342882
vt 0.836556 0.291027
vt 0.836556 0.342882
vt 0.331933 0.708973
vt 0.383787 0.657118
vt 0.383787 0.708973
vt 0.440611 0.497670
vt 0.438294 0.079724
vt 0.440611 0.079724
vt 0.438294 0.497670
vt 0.436066 0.079724
vt 0.436066 0.497670
vt 0.434013 0.079724
vt 0.434013 0.497670
vt 0.432213 0.079724
vt 0.272764 0.497670
vt 0.270965 0.079724
vt 0.272764 0.079724
vt 0.270965 0.497670
vt 0.268911 0.079724
vt 0.268911 0.497670
vt 0.266683 0.079724
vt 0.266683 0.497670
vt 0.264367 0.079724
vt 0.264366 0.497670
vt 0.262050 0.079724
vt 0.262050 0.497670
vt 0.259822 0.079724
vt 0.259822 0.497670
vt 0.257768 0.079724
vt 0.257768 0.497670
vt 0.255969 0.079724
vt 0.096520 0.497670
vt 0.094720 0.079724
vt 0.096520 0.079724
vt 0.094720 0.497670
vt 0.092667 0.079724
vt 0.092667 0.497670
vt 0.090439 0.079724
vt 0.090439 0.497670
vt 0.088122 0.079724
vt 0.088122 0.497670
vt 0.085805 0.079724
vt 0.085805 0.497670
vt 0.083577 0.079724
vt 0.083577 0.497670
vt 0.081524 0.079724
vt 0.081524 0.497670
vt 0.079724 0.079724
vt 0.625253 0.497670
vt 0.623453 0.079724
vt 0.625253 0.079724
vt 0.623453 0.497670
vt 0.621400 0.079724
vt 0.621400 0.497670
vt 0.619172 0.079724
vt 0.619172 0.497670
vt 0.616855 0.079724
vt 0.616855 0.497670
vt 0.614538 0.079724
vt 0.614538 0.497670
vt 0.612310 0.079724
vt 0.612310 0.497670
vt 0.610257 0.079724
vt 0.610257 0.497670
vt 0.608457 0.079724
vt 0.449009 0.497670
vt 0.447209 0.079724
vt 0.449009 0.079724
vt 0.447209 0.497670
vt 0.445156 0.079724
vt 0.726323 0.879076
vt 0.739306 0.868421
vt 0.749961 0.881405
vt 0.445156 0.497670
vt 0.442928 0.079724
vt 0.442928 0.497670
vt 0.566420 0.883688
vt 0.551607 0.891605
vt 0.543690 0.876793
vt 0.836556 0.131579
vt 0.754539 0.657118
vt 0.543236 0.657118
vt 0.383787 0.920276
vt 0.784702 0.291027
vt 0.331933 0.657118
vt 0.432213 0.497670
vt 0.255969 0.497670
vt 0.079724 0.497670
vt 0.608457 0.497670
vt 0.736978 0.892060
vt 0.734694 0.891605
vt 0.732543 0.890714
vt 0.730608 0.889421
vt 0.728961 0.887775
vt 0.727668 0.885839
vt 0.726777 0.883688
vt 0.726323 0.881405
vt 0.726777 0.876793
vt 0.730608 0.871060
vt 0.727668 0.874642
vt 0.728961 0.872706
vt 0.732543 0.869767
vt 0.734694 0.868876
vt 0.736978 0.868421
vt 0.741589 0.868876
vt 0.743740 0.869767
vt 0.745676 0.871060
vt 0.747322 0.872706
vt 0.748616 0.874642
vt 0.749507 0.876793
vt 0.749961 0.879076
vt 0.749507 0.883688
vt 0.748616 0.885839
vt 0.747322 0.887775
vt 0.745676 0.889421
vt 0.743740 0.890714
vt 0.741589 0.891605
vt 0.739306 0.892060
vt 0.558502 0.868876
vt 0.560653 0.869767
vt 0.562589 0.871060
vt 0.564235 0.872706
vt 0.565529 0.874642
vt 0.566420 0.876793
vt 0.566874 0.879076
vt 0.566874 0.881405
vt 0.565529 0.885839
vt 0.560653 0.890714
vt 0.564235 0.887775
vt 0.562589 0.889421
vt 0.558502 0.891605
vt 0.556219 0.892060
vt 0.553891 0.892060
vt 0.549456 0.890714
vt 0.547521 0.889421
vt 0.545874 0.887775
vt 0.544581 0.885839
vt 0.543690 0.883688
vt 0.543236 0.881405
vt 0.543236 0.879076
vt 0.544581 0.874642
vt 0.545874 0.872706
vt 0.547521 0.871060
vt 0.549456 0.869767
vt 0.551607 0.868876
vt 0.553891 0.868421
vt 0.556219 0.868421
vn 0.0000 0.0000 -1.0000
vn 0.0000 1.0000 0.0000
vn 1.0000 0.0000 0.0000
vn 0.0000 -1.0000 0.0000
vn -1.0000 0.0000 0.0000
vn 0.0000 0.0000 1.0000
vn -0.0980 0.0000 0.9952
vn -0.2903 0.0000 0.9569
vn -0.4714 0.0000 0.8819
vn -0.6344 0.0000 0.7730
vn -0.7730 0.0000 0.6344
vn -0.8819 0.0000 0.4714
vn -0.9569 0.0000 0.2903
vn -0.9952 0.0000 0.0980
vn -0.9952 0.0000 -0.0980
vn -0.9569 0.0000 -0.2903
vn -0.8819 0.0000 -0.4714
vn -0.7730 0.0000 -0.6344
vn -0.6344 0.0000 -0.7730
vn -0.4714 0.0000 -0.8819
vn -0.2903 0.0000 -0.9569
vn -0.0980 0.0000 -0.9952
vn 0.0980 0.0000 -0.9952
vn 0.2903 0.0000 -0.9569
vn 0.4714 0.0000 -0.8819
vn 0.6344 0.0000 -0.7730
vn 0.7730 0.0000 -0.6344
vn 0.8819 0.0000 -0.4714
vn 0.9569 0.0000 -0.2903
vn 0.9952 0.0000 -0.0980
vn 0.9952 0.0000 0.0980
vn 0.9569 0.0000 0.2903
vn 0.8819 0.0000 0.4714
vn 0.7730 0.0000 0.6344
vn 0.6344 0.0000 0.7730
vn 0.4714 0.0000 0.8819
vn 0.2903 0.0000 0.9569
vn 0.0980 0.0000 0.9952
vn 0.0000 1.0000 -0.0001
vn 0.0000 1.0000 0.0001
usemtl Material
s off
f 2/1/1 3/2/1 1/3/1
f 8/4/2 6/5/2 4/6/2
f 6/7/1 11/8/1 7/9/1
f 10/10/3 9/11/3 11/12/3
f 5/13/4 11/14/4 9/15/4
f 4/16/5 7/17/5 5/18/5
f 8/19/6 5/20/6 9/21/6
f 13/22/7 14/23/7 12/24/7
f 15/25/8 16/26/8 14/23/8
f 17/27/9 18/28/9 16/26/9
f 19/29/10 20/30/10 18/28/10
f 21/31/11 22/32/11 20/33/11
f 23/34/12 24/35/12 22/32/12
f 25/36/13 26/37/13 24/35/13
f 27/38/14 28/39/14 26/37/14
f 29/40/15 30/41/15 28/39/15
f 31/42/16 32/43/16 30/41/16
f 33/44/17 34/45/17 32/43/17
f 35/46/18 36/47/18 34/45/18
f 37/48/19 38/49/19 36/50/19
f 39/51/20 40/52/20 38/49/20
f 41/53/21 42/54/21 40/52/21
f 43/55/22 44/56/22 42/54/22
f 45/57/23 46/58/23 44/56/23
f 47/59/24 48/60/24 46/58/24
f 49/61/25 50/62/25 48/60/25
f 51/63/26 52/64/26 50/62/26
f 53/65/27 54/66/27 52/67/27
f 55/68/28 56/69/28 54/66/28
f 57/70/29 58/71/29 56/69/29
f 59/72/30 60/73/30 58/71/30
f 61/74/31 62/75/31 60/73/31
f 63/76/32 64/77/32 62/75/32
f 65/78/33 66/79/33 64/77/33
f 67/80/34 68/81/34 66/79/34
f 69/82/35 70/83/35 68/84/35
f 71/85/36 72/86/36 70/83/36
f 65/87/2 49/88/2 33/89/2
f 73/90/37 74/91/37 72/86/37
f 75/92/38 12/24/38 74/91/38
f 26/93/4 42/94/4 58/95/4
f 8/4/2 10/96/2 6/5/2
f 6/7/1 10/97/1 11/8/1
f 10/10/3 8/98/3 9/11/3
f 5/13/4 7/99/4 11/14/4
f 4/16/5 6/100/5 7/17/5
f 8/19/6 4/101/6 5/20/6
f 13/22/7 15/25/7 14/23/7
f 15/25/8 17/27/8 16/26/8
f 17/27/9 19/29/9 18/28/9
f 19/29/10 21/102/10 20/30/10
f 21/31/11 23/34/11 22/32/11
f 23/34/12 25/36/12 24/35/12
f 25/36/13 27/38/13 26/37/13
f 27/38/14 29/40/14 28/39/14
f 29/40/15 31/42/15 30/41/15
f 31/42/16 33/44/16 32/43/16
f 33/44/17 35/46/17 34/45/17
f 35/46/18 37/103/18 36/47/18
f 37/48/19 39/51/19 38/49/19
f 39/51/20 41/53/20 40/52/20
f 41/53/21 43/55/21 42/54/21
f 43/55/22 45/57/22 44/56/22
f 45/57/23 47/59/23 46/58/23
f 47/59/24 49/61/24 48/60/24
f 49/61/25 51/63/25 50/62/25
f 51/63/26 53/104/26 52/64/26
f 53/65/27 55/68/27 54/66/27
f 55/68/28 57/70/28 56/69/28
f 57/70/29 59/72/29 58/71/29
f 59/72/30 61/74/30 60/73/30
f 61/74/31 63/76/31 62/75/31
f 63/76/32 65/78/32 64/77/32
f 65/78/33 67/80/33 66/79/33
f 67/80/34 69/105/34 68/81/34
f 69/82/35 71/85/35 70/83/35
f 71/85/36 73/90/36 72/86/36
f 17/106/2 15/107/2 13/108/2
f 13/108/2 75/109/2 17/106/2
f 75/109/2 73/110/2 17/106/2
f 73/110/2 71/111/2 69/112/2
f 69/112/39 67/113/39 65/87/39
f 65/87/2 63/114/2 57/115/2
f 63/114/2 61/116/2 57/115/2
f 61/116/2 59/117/2 57/115/2
f 57/115/40 55/118/40 53/119/40
f 53/119/2 51/120/2 49/88/2
f 49/88/2 47/121/2 45/122/2
f 45/122/2 43/123/2 49/88/2
f 43/123/2 41/124/2 49/88/2
f 41/124/2 39/125/2 37/126/2
f 37/126/2 35/127/2 33/89/2
f 33/89/2 31/128/2 29/129/2
f 29/129/2 27/130/2 25/131/2
f 25/131/2 23/132/2 21/133/2
f 21/133/2 19/134/2 17/106/2
f 73/110/2 69/112/2 17/106/2
f 69/112/2 65/87/2 17/106/2
f 57/115/2 53/119/2 65/87/2
f 53/119/2 49/88/2 65/87/2
f 41/124/2 37/126/2 49/88/2
f 37/126/2 33/89/2 49/88/2
f 33/89/2 29/129/2 17/106/2
f 29/129/2 25/131/2 17/106/2
f 25/131/2 21/133/2 17/106/2
f 17/106/2 65/87/2 33/89/2
f 73/90/37 75/92/37 74/91/37
f 75/92/38 13/22/38 12/24/38
f 74/135/4 12/136/4 14/137/4
f 14/137/4 16/138/4 74/135/4
f 16/138/4 18/139/4 74/135/4
f 18/139/4 20/140/4 22/141/4
f 22/141/4 24/142/4 26/93/4
f 26/93/4 28/143/4 34/144/4
f 28/143/4 30/145/4 34/144/4
f 30/145/4 32/146/4 34/144/4
f 34/144/4 36/147/4 42/94/4
f 36/147/4 38/148/4 42/94/4
f 38/148/4 40/149/4 42/94/4
f 42/94/4 44/150/4 46/151/4
f 46/151/4 48/152/4 42/94/4
f 48/152/4 50/153/4 42/94/4
f 50/153/4 52/154/4 54/155/4
f 54/155/4 56/156/4 58/95/4
f 58/95/4 60/157/4 62/158/4
f 62/158/4 64/159/4 66/160/4
f 66/160/4 68/161/4 74/135/4
f 68/161/4 70/162/4 74/135/4
f 70/162/4 72/163/4 74/135/4
f 18/139/4 22/141/4 74/135/4
f 22/141/4 26/93/4 74/135/4
f 50/153/4 54/155/4 42/94/4
f 54/155/4 58/95/4 42/94/4
f 58/95/4 62/158/4 66/160/4
f 26/93/4 34/144/4 42/94/4
f 58/95/4 66/160/4 74/135/4
f 74/135/4 26/93/4 58/95/4
