# Blender 4.0.2
# www.blender.org
mtllib aLA.mtl
o 立方体.001
v -0.141612 -0.161255 -0.145241
v -0.141612 0.129228 -0.145241
v 0.148871 -0.161255 -0.145241
v 0.148871 0.129228 -0.145241
v -0.141612 -0.161255 0.145241
v -0.141612 0.129228 0.145241
v 0.148871 -0.161255 0.145241
v 0.148871 0.129228 0.145241
v 0.003629 -0.186026 -0.170013
v 0.003629 0.154000 -0.170013
v 0.003629 -0.186026 0.170013
v 0.003629 0.154000 0.170013
v -0.081115 -0.185501 -0.169488
v -0.081115 0.153475 0.169488
v -0.081115 0.153475 -0.169488
v -0.081115 -0.185501 0.169488
v 0.088373 0.153475 -0.169488
v 0.088373 -0.185501 0.169488
v 0.088373 -0.185501 -0.169488
v 0.088373 0.153475 0.169488
v -0.166384 -0.016013 -0.170013
v 0.173643 -0.016013 -0.170013
v 0.173643 -0.016013 0.170013
v -0.166384 -0.016013 0.170013
v 0.003629 -0.016013 0.200000
v 0.003629 -0.016013 -0.200000
v -0.096371 -0.016013 -0.200000
v -0.096371 -0.016013 0.200000
v 0.103629 -0.016013 0.200000
v 0.103629 -0.016013 -0.200000
v 0.173117 -0.100757 -0.169488
v 0.173117 -0.100757 0.169488
v -0.165859 -0.100757 0.169488
v 0.003629 -0.116013 0.200000
v 0.003629 -0.116013 -0.200000
v -0.096371 -0.116013 -0.200000
v -0.096371 -0.116013 0.200000
v 0.103629 -0.116013 0.200000
v 0.103629 -0.116013 -0.200000
v -0.165859 -0.100757 -0.169488
v -0.165859 0.068731 -0.169488
v 0.173117 0.068731 -0.169488
v 0.173117 0.068731 0.169488
v -0.165859 0.068731 0.169488
v 0.003629 0.083987 0.200000
v 0.003629 0.083987 -0.200000
v -0.096371 0.083987 -0.200000
v -0.096371 0.083987 0.200000
v 0.103629 0.083987 0.200000
v 0.103629 0.083987 -0.200000
v 0.173643 -0.186026 -0.000000
v 0.173643 0.154000 -0.000000
v -0.166384 -0.186026 -0.000000
v -0.166384 0.154000 -0.000000
v 0.003629 0.183987 -0.000000
v 0.003629 -0.216013 -0.000000
v -0.096371 0.183987 -0.000000
v -0.096371 -0.216013 -0.000000
v 0.103629 -0.216013 -0.000000
v 0.103629 0.183987 -0.000000
v -0.196371 -0.016013 -0.000000
v 0.203629 -0.016013 -0.000000
v 0.203629 -0.116013 -0.000000
v -0.196371 -0.116013 -0.000000
v -0.196371 0.083987 -0.000000
v 0.203629 0.083987 -0.000000
v 0.173117 -0.185501 -0.084744
v -0.165859 0.153475 -0.084744
v 0.003629 -0.216013 -0.100000
v -0.096371 -0.216013 -0.100000
v 0.103629 -0.216013 -0.100000
v -0.196371 -0.016013 -0.100000
v -0.196371 -0.116013 -0.100000
v -0.196371 0.083987 -0.100000
v 0.173117 0.153475 -0.084744
v -0.165859 -0.185501 -0.084744
v 0.003629 0.183987 -0.100000
v -0.096371 0.183987 -0.100000
v 0.103629 0.183987 -0.100000
v 0.203629 -0.016013 -0.100000
v 0.203629 -0.116013 -0.100000
v 0.203629 0.083987 -0.100000
v 0.173117 0.153475 0.084744
v -0.165859 -0.185501 0.084744
v 0.003629 0.183987 0.100000
v -0.096371 0.183987 0.100000
v 0.103629 0.183987 0.100000
v 0.203629 -0.016013 0.100000
v 0.203629 -0.116013 0.100000
v 0.203629 0.083987 0.100000
v 0.173117 -0.185501 0.084744
v -0.165859 0.153475 0.084744
v 0.003629 -0.216013 0.100000
v -0.096371 -0.216013 0.100000
v 0.103629 -0.216013 0.100000
v -0.196371 -0.016013 0.100000
v -0.196371 -0.116013 0.100000
v -0.196371 0.083987 0.100000
vn 0.4389 0.4803 -0.7594
vn 0.7594 0.4803 0.4389
vn -0.4389 0.4803 0.7594
vn -0.7594 0.4803 -0.4389
vn -0.4389 -0.7594 0.4803
vn -0.4389 0.7594 -0.4803
vn -0.0000 0.9156 -0.4020
vn -0.0000 -0.9156 0.4020
vn -0.0000 0.4020 0.9156
vn -0.0000 0.4020 -0.9156
vn -0.4389 0.4803 -0.7594
vn 0.4389 0.4803 0.7594
vn 0.4389 -0.7594 0.4803
vn 0.4389 0.7594 -0.4803
vn -0.0000 -0.0000 -1.0000
vn 0.4020 -0.0000 0.9156
vn -0.0000 -0.0000 1.0000
vn -0.4020 -0.0000 -0.9156
vn -0.9156 -0.0000 -0.4020
vn -0.4020 -0.0000 0.9156
vn 0.9156 -0.0000 0.4020
vn 0.4020 -0.0000 -0.9156
vn 0.4803 -0.4389 -0.7594
vn 0.7594 -0.4389 0.4803
vn -0.4803 -0.4389 0.7594
vn -0.7594 -0.4389 -0.4803
vn 0.0081 -0.3937 0.9192
vn -0.0081 -0.3937 -0.9192
vn -0.4803 -0.4389 -0.7594
vn -0.0081 -0.3937 0.9192
vn 0.4803 -0.4389 0.7594
vn 0.0081 -0.3937 -0.9192
vn 0.3937 0.0081 0.9192
vn -0.3937 0.0081 -0.9192
vn -0.9192 0.0081 -0.3937
vn -0.3937 0.0081 0.9192
vn 0.9192 0.0081 0.3937
vn 0.3937 0.0081 -0.9192
vn 1.0000 -0.0000 -0.0000
vn -1.0000 -0.0000 -0.0000
vn -0.9192 -0.3937 0.0081
vn 0.9192 -0.3937 -0.0081
vn 0.4020 0.9156 -0.0000
vn 0.4020 -0.9156 -0.0000
vn -0.0000 -1.0000 -0.0000
vn -0.0000 1.0000 -0.0000
vn -0.4020 0.9156 -0.0000
vn -0.4020 -0.9156 -0.0000
vn -0.9156 0.4020 -0.0000
vn 0.9156 0.4020 -0.0000
vn 0.7594 0.4803 -0.4389
vn -0.4803 -0.7594 -0.4389
vn 0.0081 -0.9192 -0.3937
vn -0.0081 -0.9192 -0.3937
vn 0.4803 -0.7594 -0.4389
vn 0.9156 -0.0000 -0.4020
vn 0.7594 -0.4389 -0.4803
vn 0.9192 0.0081 -0.3937
vn -0.9192 -0.3937 -0.0081
vn 0.3937 0.9192 -0.0081
vn -0.3937 0.9192 -0.0081
vn -0.7594 0.4803 0.4389
vn -0.4803 0.7594 0.4389
vn 0.0081 0.9192 0.3937
vn -0.0081 0.9192 0.3937
vn 0.4803 0.7594 0.4389
vn -0.9156 -0.0000 0.4020
vn -0.7594 -0.4389 0.4803
vn -0.9192 0.0081 0.3937
vn 0.9192 -0.3937 0.0081
vn 0.3937 -0.9192 0.0081
vn -0.3937 -0.9192 0.0081
vn 0.4803 0.4389 -0.7594
vn 0.7594 0.4389 0.4803
vn -0.4803 0.4389 0.7594
vn -0.7594 0.4389 -0.4803
vn -0.4803 -0.7594 0.4389
vn -0.4803 0.7594 -0.4389
vn 0.0081 0.9192 -0.3937
vn 0.0081 -0.9192 0.3937
vn 0.0081 0.3937 0.9192
vn -0.0081 0.3937 -0.9192
vn -0.4803 0.4389 -0.7594
vn -0.0081 0.9192 -0.3937
vn -0.0081 -0.9192 0.3937
vn -0.0081 0.3937 0.9192
vn 0.4803 0.4389 0.7594
vn 0.4803 -0.7594 0.4389
vn 0.4803 0.7594 -0.4389
vn 0.0081 0.3937 -0.9192
vn 0.3937 -0.0081 0.9192
vn -0.3937 -0.0081 -0.9192
vn -0.9192 -0.0081 -0.3937
vn -0.3937 -0.0081 0.9192
vn 0.9192 -0.0081 0.3937
vn 0.3937 -0.0081 -0.9192
vn 0.4389 -0.4803 -0.7594
vn 0.7594 -0.4803 0.4389
vn -0.4389 -0.4803 0.7594
vn -0.7594 -0.4803 -0.4389
vn -0.0000 -0.4020 0.9156
vn -0.0000 -0.4020 -0.9156
vn -0.4389 -0.4803 -0.7594
vn 0.4389 -0.4803 0.7594
vn -0.9156 -0.4020 -0.0000
vn 0.9156 -0.4020 -0.0000
vn 0.3937 0.9192 0.0081
vn 0.3937 -0.9192 -0.0081
vn -0.3937 0.9192 0.0081
vn -0.3937 -0.9192 -0.0081
vn -0.9192 0.3937 0.0081
vn 0.9192 0.3937 -0.0081
vn 0.7594 0.4389 -0.4803
vn -0.4389 -0.7594 -0.4803
vn -0.0000 -0.9156 -0.4020
vn 0.4389 -0.7594 -0.4803
vn 0.9192 -0.0081 -0.3937
vn 0.7594 -0.4803 -0.4389
vn -0.9192 0.3937 -0.0081
vn -0.7594 0.4389 0.4803
vn -0.4389 0.7594 0.4803
vn -0.0000 0.9156 0.4020
vn 0.4389 0.7594 0.4803
vn -0.9192 -0.0081 0.3937
vn -0.7594 -0.4803 0.4389
vn 0.9192 0.3937 0.0081
vt 0.225725 0.103394
vt 0.231072 0.097981
vt 0.234000 0.105157
vt 0.121224 0.103394
vt 0.115877 0.097981
vt 0.123089 0.095143
vt 0.121224 0.143827
vt 0.115877 0.138414
vt 0.123089 0.135576
vt 0.161510 0.127177
vt 0.156097 0.132523
vt 0.153258 0.125311
vt 0.225725 0.167757
vt 0.231072 0.173170
vt 0.223860 0.176009
vt 0.225725 0.208191
vt 0.231072 0.213604
vt 0.223860 0.216442
vt 0.234124 0.186273
vt 0.225799 0.196299
vt 0.225873 0.184408
vt 0.234124 0.145840
vt 0.225799 0.155866
vt 0.225873 0.143975
vt 0.112825 0.165745
vt 0.121150 0.155719
vt 0.121076 0.167610
vt 0.203706 0.095267
vt 0.213834 0.103468
vt 0.201943 0.103542
vt 0.196530 0.098195
vt 0.193691 0.105407
vt 0.234000 0.206428
vt 0.234000 0.165994
vt 0.112950 0.145590
vt 0.115663 0.172956
vt 0.122839 0.175884
vt 0.231286 0.138628
vt 0.224110 0.135701
vt 0.231286 0.179062
vt 0.224110 0.176134
vt 0.223860 0.095143
vt 0.213908 0.115359
vt 0.225873 0.127177
vt 0.213981 0.127250
vt 0.142993 0.176009
vt 0.132968 0.167684
vt 0.144859 0.167757
vt 0.133041 0.155792
vt 0.145006 0.143975
vt 0.144933 0.155866
vt 0.193816 0.125561
vt 0.202017 0.115433
vt 0.202090 0.127324
vt 0.161583 0.115285
vt 0.153383 0.105157
vt 0.161657 0.103394
vt 0.133115 0.143901
vt 0.143243 0.135701
vt 0.133115 0.103468
vt 0.143243 0.095267
vt 0.145006 0.103542
vt 0.225799 0.115285
vt 0.234124 0.125311
vt 0.231286 0.132523
vt 0.224110 0.135451
vt 0.150419 0.098195
vt 0.153258 0.105407
vt 0.150419 0.138628
vt 0.153258 0.145840
vt 0.156311 0.097981
vt 0.163522 0.095143
vt 0.153133 0.165994
vt 0.153258 0.155918
vt 0.203956 0.135576
vt 0.214033 0.135576
vt 0.196744 0.132737
vt 0.150205 0.173170
vt 0.132916 0.176009
vt 0.193691 0.115484
vt 0.153258 0.115234
vt 0.133167 0.135576
vt 0.133167 0.095143
vt 0.234124 0.115234
vt 0.121076 0.127177
vt 0.133041 0.115359
vt 0.132968 0.127250
vt 0.185292 0.127324
vt 0.173475 0.115359
vt 0.185366 0.115433
vt 0.183677 0.095267
vt 0.173548 0.103468
vt 0.173600 0.095143
vt 0.153133 0.125561
vt 0.144933 0.115433
vt 0.153258 0.115484
vt 0.144859 0.127324
vt 0.185439 0.103542
vt 0.203956 0.176009
vt 0.213981 0.184334
vt 0.202090 0.184261
vt 0.203956 0.135576
vt 0.213981 0.143901
vt 0.202090 0.143827
vt 0.213908 0.155792
vt 0.201943 0.167610
vt 0.202017 0.155719
vt 0.213908 0.196226
vt 0.201943 0.208043
vt 0.202017 0.196152
vt 0.213834 0.208117
vt 0.203706 0.216317
vt 0.213834 0.167684
vt 0.203706 0.175884
vt 0.183427 0.135576
vt 0.173401 0.127250
vt 0.112825 0.125311
vt 0.121150 0.115285
vt 0.115663 0.132523
vt 0.122839 0.135451
vt 0.196530 0.172956
vt 0.193691 0.165745
vt 0.193816 0.145590
vt 0.193691 0.155667
vt 0.196744 0.138414
vt 0.142993 0.135576
vt 0.150205 0.132737
vt 0.132916 0.135576
vt 0.214033 0.176009
vt 0.213782 0.216442
vt 0.163273 0.135451
vt 0.190638 0.132737
vt 0.193566 0.125561
vt 0.196530 0.213390
vt 0.193691 0.206178
vt 0.193816 0.186024
vt 0.193691 0.196100
vt 0.196744 0.178848
vt 0.193691 0.105407
vt 0.190853 0.098195
vt 0.193691 0.115484
vt 0.213782 0.176009
vt 0.112950 0.105157
vt 0.234124 0.196351
vt 0.234124 0.155918
vt 0.112825 0.155667
vt 0.213783 0.095143
vt 0.173349 0.135576
vt 0.112825 0.115234
s 0
usemtl マテリアル.001
f 50/1/1 4/2/1 42/3/1
f 90/4/2 8/5/2 43/6/2
f 48/7/3 6/8/3 44/9/3
f 74/10/4 2/11/4 41/12/4
f 94/13/5 5/14/5 84/15/5
f 78/16/6 2/17/6 68/18/6
f 17/19/7 77/20/7 79/21/7
f 18/22/8 93/23/8 95/24/8
f 20/25/9 45/26/9 49/27/9
f 15/28/10 46/29/10 47/30/10
f 2/31/11 47/30/11 41/32/11
f 77/20/7 15/33/7 78/16/7
f 93/23/8 16/34/8 94/13/8
f 45/26/9 14/35/9 48/7/9
f 8/36/12 49/27/12 43/37/12
f 7/38/13 95/24/13 91/39/13
f 4/40/14 79/21/14 75/41/14
f 46/29/10 17/42/10 50/1/10
f 26/43/15 39/44/15 35/45/15
f 32/46/16 29/47/16 38/48/16
f 25/49/17 37/50/17 34/51/17
f 40/52/18 27/53/18 36/54/18
f 27/53/15 35/45/15 36/54/15
f 29/47/17 34/51/17 38/48/17
f 72/55/19 40/56/19 73/57/19
f 28/58/20 33/59/20 37/50/20
f 88/60/21 32/61/21 89/62/21
f 30/63/22 31/64/22 39/44/22
f 39/44/23 3/65/23 19/66/23
f 89/62/24 7/67/24 91/68/24
f 37/50/25 5/69/25 16/70/25
f 73/57/26 1/71/26 76/72/26
f 18/73/27 34/51/27 11/74/27
f 13/75/28 35/45/28 9/76/28
f 1/77/29 36/54/29 13/75/29
f 34/51/30 16/70/30 11/74/30
f 7/78/31 38/48/31 18/73/31
f 35/45/32 19/66/32 9/76/32
f 46/29/15 30/63/15 26/43/15
f 43/37/33 29/47/33 23/79/33
f 45/26/17 28/58/17 25/49/17
f 41/32/34 27/53/34 21/80/34
f 47/30/15 26/43/15 27/53/15
f 49/27/17 25/49/17 29/47/17
f 72/55/35 41/12/35 21/81/35
f 28/58/36 44/9/36 24/82/36
f 88/60/37 43/6/37 23/83/37
f 30/63/38 42/3/38 22/84/38
f 82/85/39 62/86/39 80/87/39
f 98/88/40 61/89/40 96/90/40
f 84/91/41 64/92/41 53/93/41
f 67/94/42 63/95/42 51/96/42
f 80/87/39 63/95/39 81/97/39
f 96/90/40 64/92/40 97/98/40
f 83/99/43 60/100/43 87/101/43
f 67/102/44 59/103/44 71/104/44
f 56/105/45 70/106/45 69/107/45
f 55/108/46 86/109/46 85/110/46
f 59/103/45 69/107/45 71/104/45
f 87/101/46 55/108/46 85/110/46
f 57/111/47 92/112/47 86/109/47
f 58/113/48 76/114/48 70/106/48
f 92/115/49 65/116/49 98/88/49
f 75/117/50 66/118/50 82/85/50
f 4/119/51 82/85/51 42/120/51
f 70/106/52 1/121/52 13/122/52
f 19/123/53 69/107/53 9/124/53
f 69/107/54 13/122/54 9/124/54
f 3/125/55 71/104/55 19/123/55
f 31/126/56 80/87/56 81/97/56
f 3/127/57 81/97/57 67/94/57
f 42/120/58 80/87/58 22/128/58
f 65/116/40 72/55/40 61/89/40
f 64/92/59 76/72/59 53/93/59
f 61/89/40 73/57/40 64/92/40
f 75/41/60 60/100/60 52/129/60
f 77/20/46 57/111/46 55/108/46
f 60/100/46 77/20/46 55/108/46
f 57/111/61 68/18/61 54/130/61
f 65/116/49 68/131/49 74/10/49
f 6/132/62 98/88/62 44/133/62
f 86/109/63 6/134/63 14/135/63
f 20/136/64 85/110/64 12/137/64
f 85/110/65 14/135/65 12/137/65
f 8/138/66 87/101/66 20/136/66
f 33/139/67 96/90/67 97/98/67
f 5/140/68 97/98/68 84/91/68
f 44/133/69 96/90/69 24/141/69
f 66/118/39 88/60/39 62/86/39
f 63/95/70 91/68/70 51/96/70
f 62/86/39 89/62/39 63/95/39
f 91/39/71 59/103/71 51/76/71
f 93/23/45 58/113/45 56/105/45
f 95/24/45 56/105/45 59/103/45
f 58/113/72 84/15/72 53/142/72
f 66/118/50 83/143/50 90/4/50
f 50/1/73 17/42/73 4/2/73
f 90/4/74 83/143/74 8/5/74
f 48/7/75 14/35/75 6/8/75
f 74/10/76 68/131/76 2/11/76
f 94/13/77 16/34/77 5/14/77
f 78/16/78 15/33/78 2/17/78
f 17/19/79 10/144/79 77/20/79
f 18/22/80 11/145/80 93/23/80
f 20/25/81 12/146/81 45/26/81
f 15/28/82 10/147/82 46/29/82
f 2/31/83 15/28/83 47/30/83
f 77/20/84 10/144/84 15/33/84
f 93/23/85 11/145/85 16/34/85
f 45/26/86 12/146/86 14/35/86
f 8/36/87 20/25/87 49/27/87
f 7/38/88 18/22/88 95/24/88
f 4/40/89 17/19/89 79/21/89
f 46/29/90 10/147/90 17/42/90
f 26/43/15 30/63/15 39/44/15
f 32/46/91 23/79/91 29/47/91
f 25/49/17 28/58/17 37/50/17
f 40/52/92 21/80/92 27/53/92
f 27/53/15 26/43/15 35/45/15
f 29/47/17 25/49/17 34/51/17
f 72/55/93 21/81/93 40/56/93
f 28/58/94 24/82/94 33/59/94
f 88/60/95 23/83/95 32/61/95
f 30/63/96 22/84/96 31/64/96
f 39/44/97 31/64/97 3/65/97
f 89/62/98 32/61/98 7/67/98
f 37/50/99 33/59/99 5/69/99
f 73/57/100 40/56/100 1/71/100
f 18/73/101 38/48/101 34/51/101
f 13/75/102 36/54/102 35/45/102
f 1/77/103 40/52/103 36/54/103
f 34/51/101 37/50/101 16/70/101
f 7/78/104 32/46/104 38/48/104
f 35/45/102 39/44/102 19/66/102
f 46/29/15 50/1/15 30/63/15
f 43/37/16 49/27/16 29/47/16
f 45/26/17 48/7/17 28/58/17
f 41/32/18 47/30/18 27/53/18
f 47/30/15 46/29/15 26/43/15
f 49/27/17 45/26/17 25/49/17
f 72/55/19 74/10/19 41/12/19
f 28/58/20 48/7/20 44/9/20
f 88/60/21 90/4/21 43/6/21
f 30/63/22 50/1/22 42/3/22
f 82/85/39 66/118/39 62/86/39
f 98/88/40 65/116/40 61/89/40
f 84/91/105 97/98/105 64/92/105
f 67/94/106 81/97/106 63/95/106
f 80/87/39 62/86/39 63/95/39
f 96/90/40 61/89/40 64/92/40
f 83/99/107 52/129/107 60/100/107
f 67/102/108 51/76/108 59/103/108
f 56/105/45 58/113/45 70/106/45
f 55/108/46 57/111/46 86/109/46
f 59/103/45 56/105/45 69/107/45
f 87/101/46 60/100/46 55/108/46
f 57/111/109 54/130/109 92/112/109
f 58/113/110 53/142/110 76/114/110
f 92/115/111 54/148/111 65/116/111
f 75/117/112 52/149/112 66/118/112
f 4/119/113 75/117/113 82/85/113
f 70/106/114 76/114/114 1/121/114
f 19/123/115 71/104/115 69/107/115
f 69/107/115 70/106/115 13/122/115
f 3/125/116 67/102/116 71/104/116
f 31/126/117 22/128/117 80/87/117
f 3/127/118 31/126/118 81/97/118
f 42/120/56 82/85/56 80/87/56
f 65/116/40 74/10/40 72/55/40
f 64/92/105 73/57/105 76/72/105
f 61/89/40 72/55/40 73/57/40
f 75/41/43 79/21/43 60/100/43
f 77/20/46 78/16/46 57/111/46
f 60/100/46 79/21/46 77/20/46
f 57/111/47 78/16/47 68/18/47
f 65/116/119 54/148/119 68/131/119
f 6/132/120 92/115/120 98/88/120
f 86/109/121 92/112/121 6/134/121
f 20/136/122 87/101/122 85/110/122
f 85/110/122 86/109/122 14/135/122
f 8/138/123 83/99/123 87/101/123
f 33/139/124 24/141/124 96/90/124
f 5/140/125 33/139/125 97/98/125
f 44/133/67 98/88/67 96/90/67
f 66/118/39 90/4/39 88/60/39
f 63/95/106 89/62/106 91/68/106
f 62/86/39 88/60/39 89/62/39
f 91/39/44 95/24/44 59/103/44
f 93/23/45 94/13/45 58/113/45
f 95/24/45 93/23/45 56/105/45
f 58/113/48 94/13/48 84/15/48
f 66/118/126 52/149/126 83/143/126
