# Blender 4.0.2
# www.blender.org
mtllib pHI.mtl
o 立方体.004
v -0.143523 0.036413 -0.527250
v -0.143523 0.082863 -0.527250
v 0.526884 0.036413 -0.143357
v 0.526884 0.082863 -0.143357
v -0.527416 0.036413 0.143157
v -0.527416 0.082863 0.143157
v 0.142991 0.036413 0.527050
v 0.142991 0.082863 0.527050
v 0.264919 0.036413 -0.463202
v 0.264919 0.082863 -0.463202
v -0.265451 0.036413 0.463002
v -0.265451 0.082863 0.463002
v 0.462836 0.036413 0.265085
v 0.462836 0.082863 0.265085
v -0.463368 0.036413 -0.265285
v -0.463368 0.082863 -0.265285
v 0.028614 0.097294 -0.510760
v -0.000266 0.036413 -0.000100
v 0.292906 0.082863 0.432475
v -0.521727 0.036413 -0.034006
v -0.139854 0.097294 -0.513824
v 0.292906 0.036413 0.432475
v -0.521727 0.082863 -0.034006
v -0.121902 0.036413 0.212317
v 0.523710 0.036413 0.029413
v -0.290922 0.082863 -0.437068
v 0.123965 0.036413 -0.217049
v 0.523710 0.082863 0.029413
v -0.290922 0.036413 -0.437068
v -0.283493 0.097294 -0.425943
v 0.436673 0.082863 -0.290865
v -0.029809 0.036413 0.523767
v 0.436673 0.036413 -0.290865
v -0.029809 0.082863 0.523767
v 0.216683 0.036413 0.124131
v -0.513953 0.097294 0.139478
v -0.425966 0.097294 0.283088
v 0.095047 0.036413 0.336548
v 0.340914 0.036413 -0.092818
v 0.139349 0.097294 0.513577
v 0.029356 0.036413 -0.524106
v -0.437125 0.082863 0.290526
v 0.029356 0.082863 -0.524106
v -0.437125 0.036413 0.290526
v 0.285439 0.097294 0.421416
v -0.217214 0.036413 -0.124331
v 0.513448 0.097294 -0.139725
v -0.338850 0.036413 0.088086
v -0.092984 0.036413 -0.341280
v 0.425538 0.097294 -0.283470
v 0.425538 0.082664 -0.283470
v 0.513448 0.082664 -0.139725
v 0.285439 0.082664 0.421416
v 0.139349 0.082664 0.513577
v -0.425966 0.082664 0.283088
v -0.513953 0.082664 0.139478
v -0.283493 0.082664 -0.425943
v -0.139854 0.082664 -0.513824
v 0.028614 0.082664 -0.510760
v 0.258166 0.082664 -0.451410
v -0.029042 0.082664 0.510378
v -0.258672 0.082664 0.451163
v 0.480694 0.082664 0.143466
v 0.510355 0.082664 0.028637
v 0.451034 0.082664 0.258296
v -0.508409 0.082664 -0.033164
v -0.451539 0.082664 -0.258542
v -0.155099 0.036413 -0.232805
v 0.278798 0.036413 0.015656
v 0.061850 0.036413 -0.108574
v -0.377145 0.082863 -0.351177
v 0.493273 0.036413 0.147249
v -0.377145 0.036413 -0.351177
v 0.493273 0.082863 0.147249
v 0.480694 0.097294 0.143466
v 0.258166 0.097294 -0.451410
v -0.029042 0.097294 0.510378
v -0.258672 0.097294 0.451163
v -0.118785 0.097294 0.206874
v 0.510355 0.097294 0.028637
v 0.451034 0.097294 0.258296
v -0.508409 0.097294 -0.033164
v -0.451539 0.097294 -0.258542
v 0.120809 0.097294 -0.211537
v -0.330199 0.097294 0.085813
v 0.092628 0.097294 0.327936
v 0.332222 0.097294 -0.090475
v -0.090605 0.097294 -0.332598
v -0.367516 0.082664 -0.342242
v 0.060278 0.097294 -0.105830
v -0.367516 0.097294 -0.342242
v 0.271691 0.097294 0.015231
v -0.151135 0.097294 -0.226891
v 0.377871 0.036413 0.348780
v -0.492547 0.082863 -0.149645
v -0.061084 0.036413 0.106109
v 0.377871 0.082863 0.348780
v -0.492547 0.036413 -0.149645
v 0.155865 0.036413 0.230339
v -0.278032 0.036413 -0.018122
v -0.479974 0.082664 -0.145853
v 0.368236 0.082664 0.339856
v -0.479974 0.097294 -0.145853
v 0.368236 0.097294 0.339856
v -0.059519 0.097294 0.103376
v 0.151894 0.097294 0.224437
v -0.270932 0.097294 -0.017686
v 0.465864 0.097294 0.200881
v 0.478055 0.082863 0.206167
v -0.420256 0.036413 -0.308231
v -0.186157 0.036413 -0.178568
v 0.465864 0.082664 0.200881
v 0.247740 0.036413 0.069894
v 0.030792 0.036413 -0.054337
v -0.420256 0.082863 -0.308231
v 0.478055 0.036413 0.206167
v 0.030013 0.097294 -0.052977
v 0.241426 0.097294 0.068085
v -0.181401 0.097294 -0.174038
v -0.409528 0.082664 -0.300392
v -0.409528 0.097294 -0.300392
v 0.420353 0.036413 0.306933
v -0.477958 0.082863 -0.207465
v -0.030675 0.036413 0.053004
v 0.186274 0.036413 0.177235
v -0.247623 0.036413 -0.071227
v -0.465757 0.082664 -0.202198
v -0.465757 0.097294 -0.202198
v 0.420353 0.082863 0.306933
v -0.477958 0.036413 -0.207465
v 0.409635 0.082664 0.299076
v 0.409635 0.097294 0.299076
v -0.029886 0.097294 0.051626
v 0.181528 0.097294 0.172687
v -0.241299 0.097294 -0.069435
v 0.465864 0.228285 0.200881
v 0.451034 0.228285 0.258296
v -0.465757 0.228285 -0.202198
v -0.451539 0.228285 -0.258542
v 0.030013 0.228285 -0.052977
v -0.000253 0.228285 -0.000123
v 0.211161 0.228285 0.120938
v -0.211666 0.228285 -0.121184
v 0.241426 0.228285 0.068085
v -0.181401 0.228285 -0.174038
v -0.409528 0.228285 -0.300392
v 0.409635 0.228285 0.299076
v -0.029886 0.228285 0.051626
v 0.181528 0.228285 0.172687
v -0.241299 0.228285 -0.069435
vn 0.8531 -0.0000 -0.5217
vn 0.5336 -0.0000 0.8458
vn -0.8527 -0.0000 0.5224
vn -0.5219 -0.0000 -0.8530
vn -0.0000 -1.0000 -0.0000
vn 0.0003 0.9999 -0.0148
vn 0.0149 0.9999 0.0005
vn -0.2497 -0.0000 0.9683
vn 0.2503 -0.0000 -0.9682
vn -0.0146 0.9999 -0.0038
vn -0.0038 0.9999 0.0147
vn -0.9696 -0.0000 -0.2447
vn 0.9682 -0.0000 0.2501
vn -0.9995 -0.0000 -0.0321
vn -0.0079 0.9999 -0.0126
vn -0.0107 0.9999 0.0107
vn 0.7018 -0.0000 0.7124
vn 0.9998 -0.0000 0.0184
vn -0.0003 0.9999 0.0148
vn 0.0077 0.9999 0.0127
vn -0.7057 -0.0000 -0.7085
vn 0.0107 0.9999 -0.0106
vn -0.0148 0.9999 -0.0003
vn -0.0106 0.9999 -0.0108
vn -0.0190 -0.0000 0.9998
vn -0.0127 0.9999 0.0077
vn 0.7083 -0.0000 -0.7059
vn 0.0147 0.9999 0.0037
vn 0.0107 0.9999 0.0107
vn 0.0126 0.9999 -0.0077
vn 0.0182 -0.0000 -0.9998
vn 0.0038 0.9999 -0.0146
vn -0.7088 -0.0000 0.7055
vn -0.0000 1.0000 -0.0000
vn 0.4969 -0.0000 -0.8678
vn -0.5091 -0.0000 0.8607
vn -0.4847 -0.0000 0.8747
vn 0.5092 -0.0000 -0.8606
vn -0.4969 -0.0000 0.8678
vn 0.4845 -0.0000 -0.8748
vt 0.315977 0.109733
vt 0.330311 0.086343
vt 0.330311 0.109733
vt 0.147654 0.055186
vt 0.161989 0.031848
vt 0.161989 0.055186
vt 0.344646 0.086343
vt 0.344646 0.109733
vt 0.133320 0.055958
vt 0.147654 0.031848
vt 0.147654 0.055958
vt 0.564771 0.043269
vt 0.549277 0.017217
vt 0.575967 0.011241
vt 0.530737 0.195223
vt 0.550345 0.177925
vt 0.532278 0.196604
vt 0.537655 0.309769
vt 0.519621 0.289951
vt 0.539020 0.308228
vt 0.511581 0.106231
vt 0.554568 0.080471
vt 0.544365 0.117673
vt 0.330311 0.182157
vt 0.344646 0.145945
vt 0.344646 0.182157
vt 0.315977 0.182157
vt 0.330311 0.145945
vt 0.580789 0.127663
vt 0.600293 0.093012
vt 0.590090 0.130213
vt 0.628927 0.179461
vt 0.643706 0.190573
vt 0.627963 0.181244
vt 0.651272 0.303380
vt 0.668381 0.270523
vt 0.670403 0.271078
vt 0.601195 0.053259
vt 0.620849 0.015836
vt 0.610496 0.055810
vt 0.133320 0.101411
vt 0.147654 0.092716
vt 0.147654 0.101411
vt 0.147654 0.099154
vt 0.161989 0.089965
vt 0.161989 0.099154
vt 0.133320 0.150834
vt 0.147654 0.127495
vt 0.147654 0.150834
vt 0.575967 0.170079
vt 0.549277 0.176055
vt 0.670427 0.233535
vt 0.668405 0.233938
vt 0.562577 0.122668
vt 0.572780 0.085466
vt 0.582983 0.048264
vt 0.594369 0.011145
vt 0.147654 0.072576
vt 0.161989 0.072576
vt 0.147654 0.150834
vt 0.161989 0.126723
vt 0.161989 0.150834
vt 0.638397 0.063462
vt 0.664236 0.048746
vt 0.670427 0.074697
vt 0.651272 0.144542
vt 0.628194 0.100664
vt 0.670403 0.112240
vt 0.631647 0.320675
vt 0.649738 0.302001
vt 0.606771 0.328725
vt 0.632707 0.322542
vt 0.133320 0.074337
vt 0.147654 0.074337
vt 0.511581 0.265069
vt 0.513611 0.228076
vt 0.513611 0.264667
vt 0.632708 0.163705
vt 0.617991 0.137865
vt 0.537655 0.150932
vt 0.553434 0.160402
vt 0.645082 0.189034
vt 0.662371 0.208649
vt 0.603570 0.169935
vt 0.612220 0.171915
vt 0.603253 0.171961
vt 0.578602 0.169876
vt 0.330311 0.205547
vt 0.344646 0.205547
vt 0.517748 0.132176
vt 0.664236 0.207583
vt 0.315977 0.145945
vt 0.553434 0.319240
vt 0.554396 0.317456
vt 0.578602 0.328714
vt 0.569773 0.326685
vt 0.578923 0.326688
vt 0.590992 0.090461
vt 0.517748 0.291014
vt 0.315977 0.205547
vt 0.330311 0.205547
vt 0.511581 0.227519
vt 0.530737 0.036386
vt 0.330311 0.145945
vt 0.256382 0.054641
vt 0.251867 0.031848
vt 0.256382 0.031848
vt 0.256382 0.089929
vt 0.251867 0.054641
vt 0.251867 0.124303
vt 0.247352 0.106392
vt 0.251867 0.106392
vt 0.206928 0.147798
vt 0.202413 0.125055
vt 0.206928 0.125055
vt 0.260896 0.125217
vt 0.256382 0.089929
vt 0.260896 0.089929
vt 0.251867 0.088482
vt 0.247352 0.080009
vt 0.251867 0.080009
vt 0.256382 0.125217
vt 0.251867 0.089929
vt 0.251867 0.147798
vt 0.247352 0.124303
vt 0.206928 0.055343
vt 0.202413 0.031848
vt 0.206928 0.031848
vt 0.256382 0.148011
vt 0.251867 0.125217
vt 0.206928 0.091163
vt 0.202413 0.082208
vt 0.206928 0.082208
vt 0.260896 0.054641
vt 0.256382 0.031848
vt 0.260896 0.031848
vt 0.256382 0.054641
vt 0.251867 0.054591
vt 0.247352 0.031848
vt 0.251867 0.031848
vt 0.260896 0.148011
vt 0.256382 0.125217
vt 0.202413 0.108109
vt 0.206928 0.108109
vt 0.773486 0.110639
vt 0.752996 0.131130
vt 0.740501 0.108348
vt 0.846366 0.143637
vt 0.811078 0.110639
vt 0.848669 0.110639
vt 0.247352 0.088482
vt 0.206928 0.080009
vt 0.064315 0.103814
vt 0.023890 0.066223
vt 0.064315 0.066223
vt 0.773486 0.053702
vt 0.752996 0.032427
vt 0.775789 0.019943
vt 0.846366 0.019943
vt 0.811078 0.053702
vt 0.811078 0.010265
vt 0.811078 0.091844
vt 0.848669 0.091844
vt 0.773486 0.091844
vt 0.735668 0.090698
vt 0.881654 0.108348
vt 0.886487 0.090698
vt 0.869159 0.032427
vt 0.848669 0.053702
vt 0.104739 0.066223
vt 0.064315 0.025988
vt 0.104739 0.025988
vt 0.869159 0.131130
vt 0.064315 0.141406
vt 0.023890 0.103814
vt 0.775789 0.143637
vt 0.773486 0.082446
vt 0.811078 0.082446
vt 0.848669 0.082446
vt 0.888904 0.081873
vt 0.733251 0.081873
vt 0.206928 0.073253
vt 0.202413 0.055343
vt 0.247352 0.097437
vt 0.251867 0.097437
vt 0.609593 0.095562
vt 0.587992 0.328717
vt 0.606372 0.326700
vt 0.606771 0.169887
vt 0.599390 0.132764
vt 0.133320 0.083527
vt 0.147654 0.083527
vt 0.147654 0.126723
vt 0.161989 0.108344
vt 0.619796 0.058361
vt 0.645082 0.030197
vt 0.620091 0.176579
vt 0.620849 0.174674
vt 0.811078 0.072105
vt 0.881654 0.055969
vt 0.848669 0.072105
vt 0.773486 0.072105
vt 0.740501 0.055969
vt 0.202413 0.099636
vt 0.206928 0.099636
vt 0.251867 0.071536
vt 0.247352 0.054591
vt 0.592089 0.050762
vt 0.581886 0.087963
vt 0.562084 0.322071
vt 0.561324 0.323975
vt 0.594369 0.169983
vt 0.576354 0.172101
vt 0.571683 0.125165
vt 0.561324 0.165137
vt 0.147654 0.081270
vt 0.161989 0.081270
vt 0.603570 0.011097
vt 0.133320 0.127495
vt 0.147654 0.110106
vt 0.612772 0.169887
vt 0.133320 0.092716
vt 0.202413 0.091163
vt 0.161989 0.082208
vt 0.104739 0.181641
vt 0.064315 0.141406
vt 0.104739 0.141406
vt 0.023890 0.025988
vt 0.064315 0.025988
vt 0.161989 0.091163
vt 0.202413 0.073253
vt 0.588072 0.326692
vt 0.587992 0.169880
vt 0.147654 0.108344
vt 0.628927 0.020623
vt 0.612772 0.011050
vt 0.147654 0.089965
vt 0.569213 0.169872
vt 0.569213 0.328710
vt 0.811078 0.081307
vt 0.886487 0.073238
vt 0.848669 0.081307
vt 0.773486 0.081307
vt 0.735668 0.073238
vt 0.247352 0.071536
vt 0.594287 0.172008
vt 0.133320 0.110106
vt 0.422878 0.036492
vt 0.385287 0.027291
vt 0.422878 0.027291
vt 0.347696 0.036492
vt 0.307461 0.027857
vt 0.347696 0.027291
vt 0.463113 0.027857
vt 0.385287 0.036492
vt 0.422878 0.045890
vt 0.307461 0.045317
vt 0.305044 0.036492
vt 0.463113 0.045317
vt 0.465530 0.036492
vt 0.347696 0.045890
vt 0.206928 0.088482
vt 0.064315 0.103814
vt 0.104739 0.103814
vt 0.064315 0.181641
vt 0.023890 0.141406
vt 0.064315 0.066223
vt 0.315977 0.086343
vt 0.147654 0.031848
vt 0.133320 0.031848
vt 0.511581 0.068682
vt 0.202413 0.147798
vt 0.247352 0.147798
vt 0.251867 0.148011
vt 0.256382 0.148011
vt 0.811078 0.153291
vt 0.064315 0.181641
vt 0.161989 0.099636
vt 0.888904 0.081873
vt 0.733251 0.081873
vt 0.385287 0.045890
vt 0.206928 0.097437
vt 0.023890 0.181641
s 0
usemtl マテリアル.004
f 31/1/1 3/2/1 33/3/1
f 19/4/2 7/5/2 22/6/2
f 42/3/3 5/7/3 44/8/3
f 26/9/4 1/10/4 29/11/4
f 48/12/5 5/13/5 20/14/5
f 34/15/6 54/16/6 61/17/6
f 23/18/7 56/19/7 66/20/7
f 32/21/5 24/22/5 38/23/5
f 34/24/8 11/25/8 32/26/8
f 43/27/9 9/28/9 41/24/9
f 35/29/5 114/30/5 113/31/5
f 74/32/10 64/33/10 63/34/10
f 43/35/11 60/36/11 10/37/11
f 46/38/5 110/39/5 111/40/5
f 123/41/12 15/42/12 130/43/12
f 109/44/13 13/45/13 116/46/13
f 6/47/14 20/48/14 5/49/14
f 19/50/15 54/16/15 8/51/15
f 31/52/16 60/36/16 51/53/16
f 99/54/5 24/22/5 96/55/5
f 100/56/5 20/14/5 98/57/5
f 97/58/17 22/6/17 94/59/17
f 4/60/18 25/61/18 3/62/18
f 49/63/5 1/64/5 41/65/5
f 33/66/5 27/67/5 9/68/5
f 43/35/19 58/69/19 59/70/19
f 26/71/20 58/69/20 2/72/20
f 71/73/21 29/11/21 73/74/21
f 42/75/22 62/76/22 55/77/22
f 3/78/5 39/79/5 33/66/5
f 22/80/5 99/54/5 94/81/5
f 28/82/23 52/83/23 64/33/23
f 129/84/24 65/85/24 131/86/24
f 116/87/5 35/29/5 113/31/5
f 8/88/25 32/26/25 7/89/25
f 7/90/5 38/23/5 22/80/5
f 31/52/26 52/83/26 4/91/26
f 10/92/27 33/3/27 9/28/27
f 95/93/28 66/20/28 101/94/28
f 27/67/5 41/65/5 9/68/5
f 96/55/5 48/12/5 100/56/5
f 115/95/29 67/96/29 120/97/29
f 18/98/5 111/40/5 114/30/5
f 42/75/30 56/19/30 6/99/30
f 2/100/31 41/24/31 1/101/31
f 34/15/32 62/76/32 12/102/32
f 24/22/5 44/103/5 48/12/5
f 12/104/33 44/8/33 11/25/33
f 51/105/1 47/106/1 52/107/1
f 60/108/27 50/109/27 51/105/27
f 64/110/13 75/111/13 63/112/13
f 56/113/14 82/114/14 66/115/14
f 61/116/8 78/117/8 62/118/8
f 65/119/17 132/120/17 131/121/17
f 59/122/9 76/123/9 60/108/9
f 52/124/18 80/125/18 64/110/18
f 57/126/4 21/127/4 58/128/4
f 58/129/31 17/130/31 59/122/31
f 67/131/21 121/132/21 120/133/21
f 55/134/3 36/135/3 56/136/3
f 62/118/33 37/137/33 55/134/33
f 53/138/2 40/139/2 54/140/2
f 54/141/25 77/142/25 61/116/25
f 66/115/12 103/143/12 101/144/12
f 88/145/34 21/146/34 30/147/34
f 50/148/34 84/149/34 87/150/34
f 81/151/17 147/152/17 132/120/17
f 117/153/35 144/154/35 118/155/35
f 85/156/34 36/157/34 37/158/34
f 77/159/34 79/160/34 78/161/34
f 87/150/34 90/162/34 92/163/34
f 93/164/34 30/147/34 91/165/34
f 80/166/34 92/163/34 75/167/34
f 40/168/34 86/169/34 77/159/34
f 135/170/36 138/171/36 128/172/36
f 47/173/34 87/150/34 80/166/34
f 84/149/34 93/164/34 90/162/34
f 79/160/34 37/158/34 78/161/34
f 119/174/35 140/175/35 117/153/35
f 84/149/34 17/176/34 88/145/34
f 90/162/34 119/177/34 117/178/34
f 75/167/34 118/179/34 108/180/34
f 119/177/34 91/165/34 121/181/34
f 92/163/34 117/178/34 118/179/34
f 89/182/21 30/183/21 57/126/21
f 63/112/13 108/184/13 112/185/13
f 70/186/5 49/63/5 27/67/5
f 71/187/29 57/188/29 26/71/29
f 25/189/5 69/190/5 39/79/5
f 115/191/21 73/74/21 110/192/21
f 28/193/13 72/194/13 25/61/13
f 68/195/5 29/196/5 49/63/5
f 74/32/10 112/197/10 109/198/10
f 69/190/5 27/67/5 39/79/5
f 105/199/34 85/156/34 79/160/34
f 45/200/34 106/201/34 86/169/34
f 107/202/34 82/203/34 85/156/34
f 106/201/34 79/160/34 86/169/34
f 101/144/12 128/204/12 127/205/12
f 102/206/17 45/207/17 53/138/17
f 96/55/5 126/208/5 124/209/5
f 95/93/28 127/210/28 123/211/28
f 97/212/24 53/213/24 19/50/24
f 94/81/5 125/214/5 122/215/5
f 129/216/17 94/59/17 122/217/17
f 126/208/5 98/57/5 130/218/5
f 99/54/5 124/209/5 125/214/5
f 23/219/12 98/220/12 20/48/12
f 109/198/10 65/85/10 14/221/10
f 16/222/21 110/192/21 15/42/21
f 112/185/13 81/151/13 65/119/13
f 83/223/21 146/224/21 121/132/21
f 132/225/37 149/226/37 134/227/37
f 118/155/38 136/228/38 108/229/38
f 128/204/12 139/230/12 83/223/12
f 120/133/21 91/231/21 89/182/21
f 114/30/5 68/195/5 70/186/5
f 71/187/29 120/97/29 89/232/29
f 72/233/5 113/31/5 69/190/5
f 74/234/13 116/46/13 72/194/13
f 111/40/5 73/235/5 68/195/5
f 113/31/5 70/186/5 69/190/5
f 35/29/5 124/209/5 18/98/5
f 46/38/5 130/218/5 15/236/5
f 14/237/17 122/217/17 13/45/17
f 122/215/5 35/29/5 13/238/5
f 123/211/28 67/96/28 16/239/28
f 124/209/5 46/38/5 18/98/5
f 127/205/12 83/223/12 67/131/12
f 133/240/34 107/202/34 105/199/34
f 104/241/34 134/242/34 106/201/34
f 135/243/34 103/244/34 107/202/34
f 134/242/34 105/199/34 106/201/34
f 131/121/17 104/245/17 102/206/17
f 97/212/24 131/86/24 102/246/24
f 95/247/12 130/43/12 98/220/12
f 142/248/34 148/249/34 149/250/34
f 143/251/34 138/252/34 150/253/34
f 147/254/34 142/248/34 149/250/34
f 141/255/34 150/253/34 148/249/34
f 144/256/34 141/255/34 142/248/34
f 143/251/34 146/257/34 139/258/34
f 136/259/34 142/248/34 137/260/34
f 141/255/34 145/261/34 143/251/34
f 108/184/13 137/262/13 81/151/13
f 134/227/39 148/263/39 133/264/39
f 121/265/40 145/266/40 119/174/40
f 133/264/39 150/267/39 135/170/39
f 31/1/1 4/268/1 3/2/1
f 19/4/2 8/269/2 7/5/2
f 42/3/3 6/2/3 5/7/3
f 26/9/4 2/270/4 1/10/4
f 48/12/5 44/103/5 5/13/5
f 34/15/6 8/51/6 54/16/6
f 23/18/7 6/99/7 56/19/7
f 32/21/5 11/271/5 24/22/5
f 34/24/8 12/104/8 11/25/8
f 43/27/9 10/92/9 9/28/9
f 35/29/5 18/98/5 114/30/5
f 74/32/10 28/82/10 64/33/10
f 43/35/11 59/70/11 60/36/11
f 46/38/5 15/236/5 110/39/5
f 123/41/12 16/222/12 15/42/12
f 109/44/13 14/237/13 13/45/13
f 6/47/14 23/219/14 20/48/14
f 19/50/15 53/213/15 54/16/15
f 31/52/16 10/37/16 60/36/16
f 99/54/5 38/23/5 24/22/5
f 100/56/5 48/12/5 20/14/5
f 97/58/17 19/4/17 22/6/17
f 4/60/18 28/193/18 25/61/18
f 49/63/5 29/196/5 1/64/5
f 33/66/5 39/79/5 27/67/5
f 43/35/19 2/72/19 58/69/19
f 26/71/20 57/188/20 58/69/20
f 71/73/21 26/9/21 29/11/21
f 42/75/22 12/102/22 62/76/22
f 3/78/5 25/189/5 39/79/5
f 22/80/5 38/23/5 99/54/5
f 28/82/23 4/91/23 52/83/23
f 129/84/24 14/221/24 65/85/24
f 116/87/5 13/238/5 35/29/5
f 8/88/25 34/24/25 32/26/25
f 7/90/5 32/21/5 38/23/5
f 31/52/26 51/53/26 52/83/26
f 10/92/27 31/1/27 33/3/27
f 95/93/28 23/18/28 66/20/28
f 27/67/5 49/63/5 41/65/5
f 96/55/5 24/22/5 48/12/5
f 115/95/29 16/239/29 67/96/29
f 18/98/5 46/38/5 111/40/5
f 42/75/30 55/77/30 56/19/30
f 2/100/31 43/27/31 41/24/31
f 34/15/32 61/17/32 62/76/32
f 24/22/5 11/271/5 44/103/5
f 12/104/33 42/3/33 44/8/33
f 51/105/1 50/109/1 47/106/1
f 60/108/27 76/123/27 50/109/27
f 64/110/13 80/125/13 75/111/13
f 56/113/14 36/272/14 82/114/14
f 61/116/8 77/142/8 78/117/8
f 65/119/17 81/151/17 132/120/17
f 59/122/9 17/130/9 76/123/9
f 52/124/18 47/273/18 80/125/18
f 57/126/4 30/183/4 21/127/4
f 58/129/31 21/274/31 17/130/31
f 67/131/21 83/223/21 121/132/21
f 55/134/3 37/137/3 36/135/3
f 62/118/33 78/117/33 37/137/33
f 53/138/2 45/207/2 40/139/2
f 54/141/25 40/275/25 77/142/25
f 66/115/12 82/114/12 103/143/12
f 88/145/34 17/176/34 21/146/34
f 50/148/34 76/276/34 84/149/34
f 81/151/17 137/262/17 147/152/17
f 117/153/35 140/175/35 144/154/35
f 85/156/34 82/203/34 36/157/34
f 77/159/34 86/169/34 79/160/34
f 87/150/34 84/149/34 90/162/34
f 93/164/34 88/145/34 30/147/34
f 80/166/34 87/150/34 92/163/34
f 40/168/34 45/200/34 86/169/34
f 135/170/36 150/267/36 138/171/36
f 47/173/34 50/148/34 87/150/34
f 84/149/34 88/145/34 93/164/34
f 79/160/34 85/156/34 37/158/34
f 119/174/35 145/266/35 140/175/35
f 84/149/34 76/276/34 17/176/34
f 90/162/34 93/164/34 119/177/34
f 75/167/34 92/163/34 118/179/34
f 119/177/34 93/164/34 91/165/34
f 92/163/34 90/162/34 117/178/34
f 89/182/21 91/231/21 30/183/21
f 63/112/13 75/111/13 108/184/13
f 70/186/5 68/195/5 49/63/5
f 71/187/29 89/232/29 57/188/29
f 25/189/5 72/233/5 69/190/5
f 115/191/21 71/73/21 73/74/21
f 28/193/13 74/234/13 72/194/13
f 68/195/5 73/235/5 29/196/5
f 74/32/10 63/34/10 112/197/10
f 69/190/5 70/186/5 27/67/5
f 105/199/34 107/202/34 85/156/34
f 45/200/34 104/241/34 106/201/34
f 107/202/34 103/244/34 82/203/34
f 106/201/34 105/199/34 79/160/34
f 101/144/12 103/143/12 128/204/12
f 102/206/17 104/245/17 45/207/17
f 96/55/5 100/56/5 126/208/5
f 95/93/28 101/94/28 127/210/28
f 97/212/24 102/246/24 53/213/24
f 94/81/5 99/54/5 125/214/5
f 129/216/17 97/58/17 94/59/17
f 126/208/5 100/56/5 98/57/5
f 99/54/5 96/55/5 124/209/5
f 23/219/12 95/247/12 98/220/12
f 109/198/10 112/197/10 65/85/10
f 16/222/21 115/191/21 110/192/21
f 112/185/13 108/184/13 81/151/13
f 83/223/21 139/230/21 146/224/21
f 132/225/37 147/277/37 149/226/37
f 118/155/38 144/154/38 136/228/38
f 128/204/12 138/278/12 139/230/12
f 120/133/21 121/132/21 91/231/21
f 114/30/5 111/40/5 68/195/5
f 71/187/29 115/95/29 120/97/29
f 72/233/5 116/87/5 113/31/5
f 74/234/13 109/44/13 116/46/13
f 111/40/5 110/39/5 73/235/5
f 113/31/5 114/30/5 70/186/5
f 35/29/5 125/214/5 124/209/5
f 46/38/5 126/208/5 130/218/5
f 14/237/17 129/216/17 122/217/17
f 122/215/5 125/214/5 35/29/5
f 123/211/28 127/210/28 67/96/28
f 124/209/5 126/208/5 46/38/5
f 127/205/12 128/204/12 83/223/12
f 133/240/34 135/243/34 107/202/34
f 104/241/34 132/279/34 134/242/34
f 135/243/34 128/280/34 103/244/34
f 134/242/34 133/240/34 105/199/34
f 131/121/17 132/120/17 104/245/17
f 97/212/24 129/84/24 131/86/24
f 95/247/12 123/41/12 130/43/12
f 142/248/34 141/255/34 148/249/34
f 143/251/34 139/258/34 138/252/34
f 147/254/34 137/260/34 142/248/34
f 141/255/34 143/251/34 150/253/34
f 144/256/34 140/281/34 141/255/34
f 143/251/34 145/261/34 146/257/34
f 136/259/34 144/256/34 142/248/34
f 141/255/34 140/281/34 145/261/34
f 108/184/13 136/282/13 137/262/13
f 134/227/39 149/226/39 148/263/39
f 121/265/40 146/283/40 145/266/40
f 133/264/39 148/263/39 150/267/39
